<?xml version="1.0" encoding="UTF-8"?>
<svg id="Camada_1" data-name="Camada 1" xmlns="http://www.w3.org/2000/svg" viewBox="0 0 5669 4549.33">
  <path d="m3081.99,4528.81c-272.88,0-545.96,6.41-818.6-1.69-311.66-9.26-623.8-26.23-928.28-101.96-242.85-60.4-477.46-144.64-681.26-294-226.91-166.29-384.56-385.86-487.9-648C1.15,3065.15-30.57,2632.84,25.62,2193.08c24.69-193.22,87.67-378.48,174.53-555.45,73.99-150.73,161.53-291.37,266.11-422.22,31.37-39.25,3.21-79.94-5.95-117.1-55.18-224.02-75.96-450.43-47.71-679.47,15.95-129.33,75.47-245.3,125.38-364.28C557.1,9.01,579.43-2.49,624.35.42c193.72,12.59,387.29,28.06,575.4,78.05,212.91,56.58,405.81,156.05,575.48,296.51,50.54,41.84,97.12,56.34,162.63,41.92,394.64-86.89,794.4-120.53,1198.2-102.53,230.49,10.27,457.48,46.24,682.84,94.7,21.99,4.73,54.57-2.24,71.37-16.53,255.39-217.32,559.82-314.93,884-363.03,98.08-14.55,197.72-18.43,296.52-28.41,37.26-3.76,57.75,8.38,77.57,43.4,160.12,282.97,187.53,583.95,126.22,896.92-14.14,72.17-40.61,141.85-58.53,213.4-3.73,14.9.02,36.91,9.15,48.98,101.99,134.83,194.68,274.74,264.32,429.76,93.19,207.43,156.33,423.26,170.74,649.68,11.09,174.27,9.81,349.69,6.01,524.43-4.37,200.84-49.2,395.19-103.19,588.66-63.36,227.03-176.92,422.2-335.39,594.37-166.01,180.37-375.04,289.71-602.77,368.05-232.09,79.84-470.66,129.08-716.09,143.2-275.41,15.84-550.82,31.59-826.24,47.37-.21-6.84-.41-13.68-.62-20.52Zm-225.26-205.34c.1,5.42.2,10.84.3,16.25,244.17-8.6,488.82-10.48,732.38-27.74,236.59-16.76,467.62-68.22,685.39-166.68,349.47-158,579.34-408.94,630.78-802.88,28.52-218.4,16.24-431.06-66.49-635.99-76.63-189.83-189.02-351.77-376.04-451.62-180.9-96.58-375.17-116.84-574.13-96.43-239.68,24.59-477.91,64.82-717.89,84.5-262.54,21.53-526.1,20.46-788.71-12.32-223.51-27.9-446.94-59.69-671.4-76.05-364.92-26.59-674.65,165.56-828.43,497.48-103.04,222.41-116.48,456.64-85.56,693.54,13.45,103.07,41.51,208.23,84.49,302.65,100.81,221.48,280.52,370.32,494.92,475.35,269.13,131.84,562.47,174.15,856.23,196.84,206.9,15.98,416.03,3.09,624.16,3.09Z"/>
  <path d="m3503.97,3067.84c4.37-116.24,49.84-283.46,149.5-428.66,116.21-169.32,373.44-216.38,538.75-29.58,96.7,109.27,138.36,245.44,164.56,385.8,43.14,231.09-19.81,439.03-147.75,630.01-51.04,76.19-128.78,118.12-214.63,146.35-56.76,18.66-108.84,2-160.41-18.54-83.25-33.17-149.12-88.83-195.08-164.85-85.27-141.04-137.82-292.6-134.94-520.52Z"/>
  <path d="m1341.2,3083.45c-1.19-127.39,38.27-245.68,86.96-360.08,60.61-142.43,172.27-229.25,327.68-231.92,148.73-2.55,258.25,72.39,325.29,210.33,88.55,182.22,132.97,372.58,96.09,572.24-29.22,158.18-76.77,317.26-210.57,421.51-148.08,115.39-281.6,106.45-428.84-15.59-76.59-63.49-114.04-153-147.61-243.68-42.23-114.06-51.35-232.78-49-352.81Z"/>
</svg>