<?xml version="1.0" encoding="UTF-8"?>
<svg id="Camada_1" data-name="Camada 1" xmlns="http://www.w3.org/2000/svg" viewBox="0 0 5658.22 5669">
  <path d="m5655.8,2829c0,401.76,4.36,803.57-1.3,1205.25-5.08,360.14-113.17,687.76-327.04,981.69-259.76,357.01-612.65,554.8-1043.13,610.21-220.21,28.34-444.4,30.66-666.97,34.77-378.1,6.99-756.36,9.42-1134.52,7.37-254.81-1.38-509.52-16.68-764.36-20.18-164.19-2.25-327.9-8.14-487.2-48.37-334.76-84.55-621.76-250.69-839.92-522.12-177.07-220.32-308.14-465-336.93-751.11-21.07-209.36-36.46-419.91-40.88-630.21C4.03,3242.49-2.11,2788.46.67,2334.57c1.83-298.39,9.74-597.73,36.3-894.73,36.6-409.36,216.52-755.74,524.07-1029.43,219.2-195.07,479.56-314.05,769.14-359.09,156.14-24.29,315.15-38.36,473.14-41C2279.37,2.35,2755.57-.88,3231.7.2c298.69.68,597.65,6.19,895.96,20.47,738.28,35.33,1292.53,537.76,1462.9,1168.77,49.21,182.26,67.46,367.88,67.56,555.85.19,361.24.06,722.48.06,1083.72-.79,0-1.58,0-2.37,0ZM2798.12,499.22c0,1.39.01,2.78.02,4.18-222.83,0-445.91-6.56-668.42,1.81-230.65,8.68-461.32,26.44-690.91,50.42-172.43,18.01-335.63,70.43-478.83,175.78-256.55,188.74-396.49,443.19-419.52,757.74-20.06,274.05-36.16,549-37.83,823.65-3.18,524.93,2.37,1049.97,10.13,1574.88,2.99,202.6,17.2,409.36,94.27,597.25,131.86,321.48,366.25,536.37,716.36,609.51,267.64,55.91,539.45,63.67,810.86,67.7,376.35,5.59,752.88,5.78,1129.24,1.09,291.83-3.64,583.86-12.59,875.17-29.91,219.08-13.02,423.4-80.93,599.65-218.11,204.16-158.9,333.24-363.46,373.65-620.9,38.79-247.16,54.65-496.18,56.26-746.09,2.43-376.41,5.27-752.85,4.01-1129.26-1.2-357.52.25-715.47-69.1-1068.8-64.05-326.31-250.71-560-545.35-704.68-205.29-100.81-432.81-119.34-656-128.69-367.48-15.39-735.73-12.65-1103.65-17.56Z"/>
  <path d="m4281.65,2835.4c18.36,739.89-620.32,1423.71-1367.76,1451.16-886.77,32.57-1526.65-699.18-1529.95-1433.09-3.52-783.82,618.89-1467.48,1453.62-1469.98,815.96-2.44,1458.99,685.42,1444.09,1451.9Zm-2398.06-2.06c-15.19,490.26,398.72,939.01,928.06,950.34,548.12,11.73,973.25-434.91,975.67-934.36,2.44-502.69-386.6-959.99-952.92-962.02-528.45-1.89-959.02,430.49-950.81,946.04Z"/>
  <path d="m4342,988.91c212.49,4.67,333.4,124.19,343.47,315.58,8.69,165.33-119.78,338.48-329.7,347.9-177.33,7.96-336.04-154.34-337.43-340.38-1.36-183.01,135.53-319.65,323.66-323.1Z"/>
</svg>