<?xml version="1.0" encoding="UTF-8"?>
<svg id="Camada_1" data-name="Camada 1" xmlns="http://www.w3.org/2000/svg" viewBox="0 0 5664.2 5669">
  <path d="m3152.83,2402.45c17.31-31.71,32.07-65.18,52.36-94.86,130.28-190.58,301.02-332.26,518.2-413.05,460.05-171.14,911.43-146.67,1347.6,77.47,212.37,109.13,343.36,292.78,429.41,512.75,117.32,299.91,163.87,611.52,163.81,931.41-.13,733.16-1.23,1466.32-2.17,2199.47-.02,16.33-2.82,32.66-4.48,50.68h-1159.86c0-41.12.04-80.92,0-120.71-.7-621.7-2-1243.4-1.77-1865.09.07-178.67-19.94-353.61-80.16-522.73-43.32-121.67-118.53-217.12-238.74-268.18-257.69-109.45-507.75-94.76-741.58,64.44-113.12,77.02-171.1,197.36-202.19,324.4-31.46,128.56-48.5,261.49-61.05,393.53-9.07,95.53.04,192.73.17,289.19.73,554.12.99,1108.25,2.33,1662.37.08,31.6-6.76,45.55-41.69,45.46-368.5-.98-737.01-.63-1105.52-.8-8.06,0-16.11-1.73-30.56-3.38,0-35.01,0-68.38,0-101.75-.27-1211.31-.35-2422.63-1.67-3633.94-.04-38.23,16.16-46.42,47.79-46.2,98.03.69,196.06,1.06,294.09,1.31,248.48.64,496.97,2.15,745.44.74,41.21-.23,52.64,12.82,51.91,51.96-2.51,135.12-2.58,270.28-2.93,405.43-.05,19.17,3.52,38.35,5.41,57.53,5.29.85,10.57,1.71,15.86,2.56Z"/>
  <path d="m1255.05,5666.79H88.66V1889.74c20.4-1.84,48.1-6.58,75.8-6.51,346.51.96,693.02,2.89,1039.52,3.65,33.46.07,51.24,3.59,51.21,45.99-.98,1150.46-.43,2300.93-.14,3451.39.02,92.51,0,185.02,0,282.52Z"/>
  <path d="m1354.31,682.23c-8.03,339.87-288.39,684.74-682.05,675.66C341.13,1350.26,7.43,1101.37.14,687.31-6.99,283.02,268.36,5.26,679.38.06c387.24-4.9,671.93,302.9,674.93,682.18Z"/>
</svg>