<?xml version="1.0" encoding="utf-8"?>
<!-- Generator: Adobe Illustrator 27.3.1, SVG Export Plug-In . SVG Version: 6.00 Build 0)  -->
<svg version="1.1" xmlns="http://www.w3.org/2000/svg" xmlns:xlink="http://www.w3.org/1999/xlink" x="0px" y="0px"
	 viewBox="0 0 1115 1037" style="enable-background:new 0 0 1115 1037;" xml:space="preserve">
<style type="text/css">
	.st0{display:none;}
	.st1{display:inline;fill:#262A40;stroke:#000000;stroke-width:3;stroke-miterlimit:10;}
	.st2{fill:#FFFFFF;}
	.st3{fill:#FFBF00;}
	.st4{fill:#01B7D0;}
	.st5{fill:#D39700;}
	.st6{fill:#0095A0;}
	.st7{fill:none;stroke:#000000;stroke-width:12;stroke-miterlimit:10;}
	.st8{stroke:#000000;stroke-width:3;stroke-miterlimit:10;}
</style>
<g id="Camada_6" class="st0">
	<rect x="-125" y="-57.5" class="st1" width="1392" height="1246"/>
</g>
<g id="Camada_4">
	<g>
		<path class="st2" d="M147.05,642.91c-0.54-9.38-1.08-18.77-1.66-29.01c-8.1-0.09-15.15-0.48-22.16-0.04
			c-1.84,0.11-3.5,2.81-5.3,4.22c-4.25,3.32-9,3.25-11.37-1.85c-1.43-3.07-1.04-9.15,0.81-11.79c3.03-4.34,8.44-4.09,11.3,0.81
			c2.56,4.38,5.31,4.91,9.18,4.72c5.23-0.25,10.49-0.02,16.18,0.01c-0.51-8.89-0.98-17.13-1.51-26.32
			c-6.4,0.37-12.55,0.54-18.67,1.13c-4.2,0.41-5.69-1.43-5.9-6.17c-0.66-14.9-1.64-29.79-2.51-45.08
			c-7.7,0.44-14.49,0.83-22.31,1.28c0.59,10.23,1.12,20.05,1.72,29.87c0.35,5.64,0.1,11.05,4.69,15.69
			c3.55,3.6,2.49,9.01-1.35,12.32c-3.76,3.24-7.95,2.91-11.09-1.41c-3.14-4.3-3.11-9.75,0.89-12.46c4.68-3.17,4.23-7.21,3.93-11.93
			c-2.65-40.68-5.28-81.36-7.82-122.04c-0.25-3.96-1.05-6.43-4.63-8.5c-4.59-2.66-5.4-7.94-2.57-12.84
			c2.65-4.58,6.77-5.53,10.85-2.45c4.4,3.32,4.5,7.88,2.41,13.16c-1.48,3.75-3,8.05-2.8,12.02c1.33,25.73,3.12,51.45,4.8,77.16
			c0.15,2.28,0.57,4.55,0.92,7.25c7.23-0.41,14.03-0.8,21.69-1.24c-1.1-19.19-2.19-38.17-3.33-58.07
			c16.36-0.94,31.89-1.83,48.44-2.78c-0.45-7.86-0.65-14.83-1.41-21.73c-0.16-1.42-2.32-2.74-3.71-3.84c-4.44-3.49-5.91-9.29-3-13.6
			c2.93-4.35,6.9-4.99,11.02-2.16c4.23,2.9,4.53,8.55,1.72,13.81c-1.37,2.57-2.21,5.93-2.22,8.96c-0.01,6.79,0.65,13.59,1.11,21.49
			c-16.31,0.94-32.03,1.84-48.14,2.76c0.69,12.01,1.31,22.89,1.98,34.53c2.63-0.01,5.09,0.11,7.53-0.04
			c20.68-1.22,41.36-2.73,62.06-3.52c3.63-0.14,7.74,2,11.02,4.26c12.11,8.35,17.77,20.51,16.12,36.8
			c-0.38,3.78,0.35,7.73,0.61,12.14c7.79-0.45,14.76-0.85,22.5-1.29c-0.75-13.1-1.38-25.89-2.37-38.65
			c-0.11-1.41-2.15-2.88-3.54-3.91c-4.69-3.47-5.97-8.01-3.35-13.48c2.06-4.28,8.17-5.5,11.51-2.25c4.23,4.12,4.18,8.76,1.15,13.96
			c-1.36,2.33-2.23,5.61-2.13,8.42c0.46,12.84,1.35,25.66,2.16,39.82c-6.43,0.37-12.33,0.44-18.16,1.16
			c-2.65,0.33-7.43,2.29-7.35,2.94c0.57,4.59,2.06,9.08,3.45,13.52c1.09,3.48,3.4,6.88,3.37,10.26c-0.02,2.17-3.21,5.86-5.16,5.99
			c-2.96,0.18-7.62-1.23-8.72-3.63c-1.32-2.89-0.9-8.9,0.98-11.06c2.9-3.32,3.16-6.19,2.83-10.29c-0.84-10.64-1.3-21.31-1.93-32.38
			c-15.11,0.87-29.54,1.57-43.94,2.69c-1.58,0.12-3.16,2.46-4.43,4.08c-3.65,4.65-7.91,5.66-12.09,1.51
			c-3.6-3.57-3.82-8.36-0.79-12.71c3-4.31,8.13-4.18,12.21-0.16c1.45,1.42,3.31,3.38,4.91,3.32c14.45-0.55,28.89-1.49,45.58-2.45
			c-2.13-4.67-3.54-7.78-4.97-10.87c-0.1-0.22-0.36-0.34-0.5-0.54c-8.3-11.48-18.19-15.53-31.5-13.39
			c-16.32,2.62-33.04,2.35-49.59,3.36c-2.25,0.14-4.49,0.49-7.07,0.79c1.3,22.67,2.57,44.86,3.92,68.32
			c10.48-0.6,20.72-1.04,30.94-1.83c6.49-0.5,13.64,1.58,18.12-7.09c0.81-1.58,7.77-1.04,10,1.1c1.84,1.76,2.36,8.81,0.8,10.86
			c-1.9,2.49-8.48,4.29-9.77,2.77c-7.85-9.22-16.5-2.09-25.79-4.59c1.2,20.94,2.32,40.51,3.45,60.08
			C148.54,642.81,147.79,642.86,147.05,642.91z"/>
		<path class="st2" d="M262.9,728.79c9.15,6.12,3.7,17.61,8.28,24.96c12.04-0.69,24.17-1.34,36.3-2.1
			c7.35-0.46,14.69-1.08,22.03-1.63c5.1-0.38,10.04,0.22,13.59-6.18c2.45-4.42,7.45-3.8,10.89,0.23c3.4,3.98,3.5,8.7,0.18,12.7
			c-3.33,4.02-7.97,4.49-10.96,0.28c-3.1-4.36-6.26-4.13-10.22-3.8c-19.03,1.58-38.08,2.96-57.13,4.4
			c-2.49,0.19-4.98,0.29-7.52,0.44c-0.63-2.16-1.51-3.68-1.42-5.11c0.84-13.96-6.11-21.84-16.39-26.84
			c-7.25-3.53-9.33-9.63-9.25-18.08c0.08-8.83-0.88-17.7-1.44-27.49c16.45-1.58,32.4-4,48.4-4.38c15.41-0.36,28-4.97,36.75-20.25
			c2.96-5.17,8.01-8.74,11.02-13.88c6.67-11.42,15.94-14.8,27.53-14.63c7.61,0.11,16.01,1.98,22.29-6.4
			c0.98-1.31,8.1,0.77,9.62,3.36c1.47,2.53,0.55,8.81-1.39,11.48c-2.91,4.01-8.26,3.64-10.78-0.91c-2.72-4.9-5.9-4.18-9.79-4.61
			c-17.51-1.9-31.31,4.52-40.84,21.57c-0.72,1.29-2.1,2.1-2.82,3.4c-10.54,19.09-26.16,25.38-45.45,24.71
			c-13.49-0.46-27.01,1.31-40.97,2.11c0.45,7.86,0.77,13.49,1.17,20.33c3.39-0.19,6.74-0.32,10.08-0.59
			c25.69-2.11,51.37-4.35,77.07-6.28c5.59-0.42,9.14-2.25,11.14-8.89c3.65-12.1,8-23.94,12.63-35.59c1.03-2.59,4.3-5.19,6.81-5.55
			c7.73-1.11,15.61-0.98,23.41-1.65c3.91-0.34,6.05,0.58,6.16,5.72c0.17,7.85,0.83,15.69,1.31,24.15c-3.03,0.47-5.8,0.51-8.35,1.38
			c-3.28,1.11-6.63,2.42-9.49,4.48c-4.28,3.09-8.25,3.58-11.73-0.94c-3.25-4.21-2.98-8.9,0.61-12.62c3.59-3.72,7.57-3.33,11.16,0.43
			c5.46,5.72,5.41,5.78,14.4,3.62c-0.35-6.09-0.41-12.35-1.27-18.48c-0.22-1.54-3.02-3.76-4.63-3.77
			c-6.9-0.05-13.81,0.45-20.68,1.11c-1.56,0.15-3.83,1.34-4.36,2.76c-5.08,13.59-9.85,27.33-14.86,41.43
			c16.43-0.94,31.77-1.73,47.08-2.87c1.29-0.1,2.57-2.48,3.56-4.05c3.27-5.15,7.5-6.21,11.92-2.56c3.91,3.23,4.36,7.99,1.71,12.59
			c-2.67,4.61-7.71,4.77-12.16,1.22c-2.05-1.63-4.79-3.32-7.09-3.14c-47.49,3.69-94.96,7.64-142.44,11.56
			c-0.43,0.04-0.83,0.36-1.24,0.55c-1.45,11.06,4.02,18.76,13.77,18.49c19.1-0.54,38.28-0.54,57.22-2.72
			c9.35-1.07,18.36-6.2,27.32-10.09c4.07-1.77,6.8-1.37,9.67,2.48c2.47,3.31,4.86,6.18,9.85,5.42c4.83-0.73,8.23,3.64,8,9.57
			c-0.21,5.46-3.3,8.8-8.13,8.55c-5.16-0.26-7.9-3.96-7.95-9.9c-0.1-10.67-5.47-15.6-13.63-10.97
			c-17.51,9.91-36.34,9.62-55.18,10.16C278.47,727.71,270.69,728.34,262.9,728.79z"/>
		<path class="st2" d="M305.06,240.54c7.96-0.46,15.91-1.16,23.88-1.27c4.71-0.06,5.77-2.34,5.36-7.3
			c-1.2-14.67-2.15-29.36-3.06-44.05c-0.25-4.08-0.67-7.11-4.73-9.28c-4.69-2.51-5.37-7.95-2.71-12.83
			c2.57-4.71,6.85-5.36,10.86-2.52c4.51,3.19,4.41,7.87,2.52,13.14c-1.66,4.63-2.48,9.67-3.67,14.53c0.83,0.51,1.66,1.03,2.49,1.54
			c17.01-14.14,34.02-28.28,51.04-42.42c0.51,0.61,1.02,1.22,1.53,1.83c-1.49,1.74-2.81,3.76-4.51,5.19
			c-14.16,11.92-28.15,24.12-42.7,35.4c-6.08,4.71-7.33,9.82-4.84,17.57c21.48-1.23,42.99-2.47,65.11-3.73
			c-0.54-9.36-1.05-18.35-1.68-29.22c-4.99,5.86-10.8,8.73-11.2,17.33c-0.29,6.19-3.82,9.64-9.35,8.57
			c-4.74-0.92-7.1-4.85-6.65-10.36c0.44-5.46,4.82-8.18,10.13-7.57c2.24,0.26,5.16-0.65,6.82-2.28c4.21-4.13,7.88-8.97,13.11-15.1
			c0.8,14,1.47,25.66,2.16,37.61c5.28,0.96,9.15,1.75,12.36-4.17c2.61-4.82,7.41-5.01,11.41-1.01c3.74,3.73,4.02,8.52,0.93,12.62
			c-3.32,4.4-7.3,4.04-11.7,0.83c-2.79-2.03-6.4-3.91-9.54-3.77c-21.84,0.95-43.66,2.44-65.48,3.79c-2.02,0.12-4.02,0.48-6.49,0.78
			c0.45,7.9,0.88,15.39,1.39,24.24c2.97-0.17,5.61-0.3,8.24-0.48c20.89-1.41,41.8-2.62,62.66-4.38c5.83-0.49,7.71,1.64,7.78,8.11
			c0.09,8.93,0.88,17.86,1.45,26.78c0.34,5.38,0.12,10.5,4.6,14.9c3.52,3.45,2.69,8.99-1,12.46c-3.68,3.45-7.9,3.07-11.1-1.12
			c-3.17-4.14-3.44-9.69,0.53-12.48c4.64-3.26,4.13-7.34,3.84-12.02c-0.52-8.4-1.31-16.81-1.35-25.2c-0.03-6.49-2.41-7.83-7.62-7.47
			c-30.07,2.13-60.17,3.94-90.26,5.85c-3.46,0.22-6.93,0.4-10.39,0.6C305.16,242.98,305.11,241.76,305.06,240.54z"/>
		<path class="st2" d="M425.86,823c-26.17,1.5-51.77,2.97-78.22,4.49c-0.34-5.93-0.86-11.62-0.93-17.32
			c-0.06-4.91-1.42-7.04-6.15-6.69c-26.61,1.99-53.26,3.45-79.86,5.66c-6.53,0.54-11.76-0.1-15.33-7.1
			c-0.69-1.35-1.79-2.42-2.72-3.61c-5.25-6.68-9.53-16.33-16.02-19.18c-6.51-2.86-15.24,1.01-22.99,2.02
			c-13.01,1.7-26,3.49-39.01,5.2c-1.93,0.25-3.88,0.24-6.18-1.23c1.02-0.62,1.99-1.64,3.06-1.79c20.52-2.86,41.06-5.51,61.56-8.48
			c4.09-0.59,6.93,0.47,9.57,4.23c4.92,7.03,10.52,13.45,15.27,20.62c3.39,5.12,7.07,6.08,12.47,5.65
			c27.52-2.21,55.09-3.81,82.64-5.6c1.59-0.1,3.2,0.02,5.7,0.04c0.45,7.79,0.89,15.51,1.35,23.58c2.36,0.31,3.89,0.77,5.4,0.68
			c14.24-0.85,28.47-1.94,42.72-2.62c4.52-0.21,5.89-2.14,5.53-7.23c-1.06-14.69-1.9-29.39-2.51-44.1c-0.19-4.6-1.63-7.09-5.47-8.72
			c-8.21-3.5-16.26-7.52-25.62-11.91c6.8-8.71,13.04-16.8,19.38-24.79c7.36-9.28,14.98-18.29,22.08-27.83
			c1.82-2.45,2.97-6.43,2.9-9.69c-0.27-11.82-1.19-23.63-1.87-35.45c-0.14-2.5-0.29-4.99-0.43-7.49c0.69-0.12,1.37-0.24,2.06-0.37
			c0.42,1.67,1.11,3.33,1.22,5.02c0.86,13.65,1.95,27.3,2.16,40.95c0.05,3.56-2.22,7.65-4.36,10.62
			c-11.74,16.26-23.78,32.25-35.8,48.46c6.01,2.83,12.94,6.46,20.1,9.32c4.58,1.83,6.47,4.53,6.67,10.22
			c0.63,17.04,1.83,34.06,2.79,50.86c1.3,0.57,1.93,1.07,2.56,1.1c13.33,0.51,13.37,0.49,12.45-14.58
			c-0.92-14.96-1.9-29.91-2.92-44.86c-0.56-8.07-6.49-14.14-13.37-13.94c-5.19,0.15-8.39-2.69-9.01-8.63
			c-0.55-5.23,3.27-10.08,7.8-9.74c5.12,0.38,7.61,3.72,8.24,9.72c0.34,3.22,1.66,7.06,3.68,9.2c4.06,4.29,5.69,8.92,5.97,15.16
			c0.78,17.06,2.19,34.1,3.3,51.14C425.89,816.79,425.81,819.63,425.86,823z"/>
		<path class="st2" d="M452.83,691.8c6.17,6.7,12.48,13.25,18.41,20.21c1.4,1.64,2,4.66,2.16,7.1c1.07,15.97,1.91,31.96,2.84,48.13
			c4.02,1.43,6.41,1.8,7.89-3.26c1.78-6.1,7.15-8.46,11.44-5.58c4.23,2.85,5.46,7.47,3.32,12.22c-2.54,5.65-6.75,5.75-11.8,3.47
			c-3.9-1.76-8.27-2.14-13.54-3.4c-0.52-9.1-1.09-18.99-1.66-28.89c-0.23-3.94-1.01-7.96-0.58-11.8
			c1.63-14.64-7.29-21.28-17.01-29.7c1,17.42,1.81,33.3,2.84,49.17c1.97,30.42,4.2,60.83,5.99,91.27c0.36,6.14,2,8.36,7.48,7.66
			c6.76-0.87,13.62-0.9,21.1-1.33c0.75,13.05,1.23,24.84,2.23,36.58c0.26,3,1.73,6.23,3.41,8.67c3.48,5.04,3.78,9.8-0.32,13.91
			c-3.59,3.6-7.74,2.96-11.14-0.97c-3.38-3.91-2.42-9.61,1.27-13.94c1.74-2.05,3.33-5.38,3.29-8.12
			c-0.16-10.42-1.02-20.84-1.67-32.16c-7.56,0.43-14.2,0.53-20.76,1.41c-1.43,0.19-3.7,3.22-3.61,4.83
			c1.03,18.69,0.36,37.62,12.17,53.72c6.94,9.46,11.96,20.73,17.88,31.17c3.17,5.6,5.43,11.63,12.7,12.9
			c4.49,0.78,6.58,6.87,3.94,11.34c-1.72,2.92-6.22,5.45-9.27,5.13c-4.6-0.48-7.33-5.54-5.53-10.61c1.8-5.05,0.22-8.28-1.98-12.14
			c-9.34-16.41-18.65-32.85-27.7-49.46c-1.75-3.2-3.03-7.2-3.27-10.92c-4-60.85-7.8-121.72-11.64-182.58
			c-0.26-4.15-0.48-8.3-0.72-12.45C451.61,692.86,452.22,692.33,452.83,691.8z"/>
		<path class="st2" d="M533.22,725.21c-7.27,0.42-13.61,0.78-21.13,1.21c-0.57-9.88-0.89-18.96-1.67-27.99
			c-0.58-6.67,0.46-13.95-6.78-18.23c-1.62-0.95-2.01-8.69-0.48-11.5c1.27-2.32,7.27-3.82,9.28-2.33c2.45,1.83,4.97,9.23,3.89,10.64
			c-5.41,7.07-3.11,14.76-2.69,22.34c0.39,7.08-1.13,16.48,2.22,20.52c3,3.61,11.48,1.29,17.54,1.64c0.66,0.04,1.31,0.4,2.79,0.88
			c0.7,12.29,1.63,24.82,1.93,37.35c0.05,1.98-2.44,4.67-4.34,5.87c-13.38,8.5-26.84,16.86-40.44,24.9
			c-3.8,2.25-5.37,4.88-4.79,9.82c0.76,6.51-0.93,14.84,2.06,19.12c2.57,3.68,10.22,2.77,17.35,4.25
			c0.71,12.3,1.47,25.58,2.23,38.85c0.93,16.28,2.11,32.56,2.69,48.85c0.27,7.66,1.91,14.33,6.04,20.5
			c3.37,5.03,5.85,10.85,9.35,15.75c1.95,2.73,4.93,5.13,7.85,6.2c5.22,1.9,7.38,5.67,6.43,11.24c-0.91,5.32-4.45,8.07-9.23,6.85
			c-5.05-1.29-7.99-5.75-6.09-11.15c1.74-4.96,0.29-8.15-2.1-11.38c-12.06-16.31-16.67-34.92-16.68-56.06
			c-0.01-19.93-2.4-39.88-3.41-59.84c-0.29-5.83-1.52-9.09-7.25-7.8c-1.55,0.35-3.24-0.1-4.82,0.15c-4.94,0.78-6.51-1.93-6.6-7.2
			c-0.12-6.83-0.45-13.69-1.2-20.47c-0.54-4.97,1.02-7.66,4.8-9.85c9.98-5.8,19.79-11.98,29.64-18.06c1.57-0.97,2.99-2.24,5.15-3.88
			c-10.44-9.38-20.65-18.05-30.26-27.52c-2.75-2.71-5.01-7.59-5.39-11.69c-1.44-15.7-2.04-31.49-2.91-47.25
			c-0.13-2.26-0.01-4.54-0.01-6.81c0.62-0.12,1.24-0.23,1.86-0.35c0.4,2.43,1.01,4.85,1.16,7.3c0.94,15.23,1.52,30.48,2.85,45.67
			c0.32,3.65,2.26,8.04,4.7,10.43c8.79,8.62,17.98,16.73,27.31,24.57c1.98,1.66,5.62,2.52,7.74,1.58c1.65-0.73,3.01-4.82,2.97-7.42
			C534.62,745.52,533.84,736.1,533.22,725.21z"/>
		<path class="st2" d="M473.98,156.05c6.53-1.69,12.84-2.93,18.86-5.16c1.5-0.55,2.96-4.32,2.88-6.57
			c-0.31-9.18-1.17-18.35-1.94-27.52c-0.32-3.76,0.47-5.92,4.25-6.14c17.69-0.99,35.37-2.17,53.05-3.24c0.33-0.02,0.69,0.5,1.86,1.4
			c-2.8,2.51-5.46,4.75-7.99,7.17c-4.69,4.51-10.75,7.46-10.97,16.54c-0.05,2.04-6.28,5.89-8.82,5.12
			c-2.62-0.79-6.04-6.49-5.74-9.56c0.29-3.05,5.65-8.39,7.27-7.72c7.94,3.26,11.09-3.54,15.62-9.05c-3.93,0.23-7.86,0.39-11.79,0.69
			c-9.41,0.7-18.8,1.51-28.21,2.17c-3.04,0.21-5.44,0.7-5.12,5.26c0.67,9.66,1.14,19.33,1.75,29.95
			c21.1-5.6,41.13-10.85,61.11-16.36c1.39-0.38,2.69-2.43,3.47-4.06c2.95-6.17,7.12-8.28,11.67-5.55c3.96,2.37,5.67,8.74,3.11,12.94
			c-3.13,5.15-7.16,5.5-12.04,2.42c-2.15-1.35-5.23-2.14-7.54-1.54c-26.6,6.94-53.1,14.32-79.7,21.23c-4.3,1.12-5.52,3.09-5.18,7.95
			c1.17,16.72,2,33.47,3.03,51.42c-7.48,0.43-14.33,0.43-21.07,1.4c-2.76,0.39-5.73,2.29-7.79,4.49c-3.94,4.2-8.69,5.08-12.14,1.02
			c-3.41-4.02-3.7-8.63-0.43-12.68c3.52-4.37,7.42-3.74,11.71-0.42c2.55,1.97,5.86,3.45,8.88,3.63c5.47,0.34,10.98-0.44,16.78-0.78
			c0.18-2.34,0.52-4.11,0.41-5.86c-1.25-19.94-2.44-39.89-4.04-59.79c-0.22-2.72-2.18-5.87-4.13-7.73c-4.1-3.91-5.55-9.39-2.6-13.73
			c3.02-4.44,7.13-4.97,11-1.9c4.31,3.42,5.08,8.75,1.68,13.02C470.69,144.1,472.76,149.53,473.98,156.05z"/>
		<path class="st2" d="M556.92,564.78c-12.44,0.71-24.53,1.41-37.37,2.14c-0.55-9.56-1.05-18.37-1.61-28.02
			c-13.69,0.79-26.65,1.53-40.23,2.31c-0.42-3.3-0.88-5.8-1.04-8.32c-2.43-38.85-4.72-77.7-7.31-116.54
			c-0.38-5.66,0.33-10.34,3.95-14.23c0.5-0.53,0.91-1.17,1.35-1.77c15.91-21.48,15.88-21.48,13.97-49.51
			c-1-14.69-1.7-29.41-2.97-44.08c-0.24-2.77-1.98-6.19-3.96-7.83c-4.52-3.75-6.09-7.93-3.49-13.49c2.17-4.63,7.74-5.91,11.34-2.56
			c4.28,3.98,4.46,8.6,1.61,13.96c-1.38,2.6-2.25,6.11-2.1,9.14c1.15,22.85,2.77,45.69,3.83,68.54c0.16,3.47-0.91,8.25-3.01,10.37
			c-15.21,15.34-18.89,33.86-16.12,56.85c3.51,29.17,4.06,58.74,5.91,88.14c0.13,2.07,0.43,4.12,0.74,7.04
			c13.14-0.75,26.11-1.5,40.04-2.3c0.56,9.84,1.08,18.84,1.64,28.58c13.05-0.75,25.14-1.44,37.85-2.17c0.35,3.51,0.72,6.3,0.9,9.1
			c1.26,20.48,2.47,40.96,3.72,61.44c0.34,5.64,0.21,10.99,4.78,15.6c3.49,3.52,2.5,9.07-1.39,12.34
			c-3.77,3.17-7.99,2.81-11.11-1.54c-3.09-4.31-3.12-9.86,0.9-12.46c4.76-3.08,4.19-7.06,3.89-11.69
			c-1.3-20.47-2.54-40.95-3.83-61.42C557.64,570.09,557.27,567.81,556.92,564.78z"/>
		<path class="st2" d="M623.03,303.24c7.83-13.43,15.73-26.8,23.4-40.34c1.01-1.79,1.26-4.5,1.12-6.73
			c-2.65-42.51-5.41-85.02-8.17-127.53c-0.06-0.99-0.43-1.96-0.84-3.72c-8.11,1.66-16.75-2.44-23.7,6.15
			c-2.96,3.66-8.1,2.22-10.07-2.23c-1.37-3.08-1.33-8.34,0.11-11.32c2.09-4.32,7.66-5.42,10.09-1.54c5.46,8.72,12.44,5.5,19.14,5.53
			c2.27,0.01,4.55-0.24,8.5-0.46c0.73,12.73,1.4,24.95,2.14,37.15c1.97,32.55,4.02,65.1,5.88,97.65c0.17,2.97-0.06,6.57-1.39,8.93
			c-8.99,16.05-18.32,31.85-27.58,47.7c-0.45,0.77-1.22,1.28-3.29,3.39c-0.49-8.62-0.88-15.58-1.29-22.55
			c-0.97-16.54-2.15-33.08-2.82-49.63c-0.21-5.22-1.82-8.19-6.03-10.16c-4.05-1.89-7.68-5.1-11.79-6.71
			c-7.28-2.85-9.48-8.26-9.48-16.69c-0.01-11.01-1.34-22.03-1.97-33.06c-0.33-5.69-0.1-10.86-6.07-14.23
			c-4.11-2.32-4.56-8.79-1-12.19c2.35-2.24,7.34-3.15,10.24-1.87c4.36,1.93,5.84,7.92,2.7,11.87c-3.89,4.89-3.08,9.96-2.78,15.32
			c0.71,12.34,1.71,24.67,2.18,37.01c0.18,4.57,1.65,7.18,5.22,9.07c5.46,2.89,10.64,6.48,16.13,9.28c3.88,1.98,5.43,4.75,5.64,9.61
			c0.73,17.08,1.82,34.14,2.87,51.21c0.22,3.61,0.84,7.2,1.27,10.8C621.93,303.06,622.48,303.15,623.03,303.24z"/>
		<path class="st2" d="M255.25,485.5c0.47,8.23,0.9,15.78,1.34,23.33c0.8,13.92,0.88,27.94,2.58,41.73
			c2.1,17.12-0.3,32.59-7.64,47.5c-2.51,5.1-4.78,7.71-10.23,7.95c-22.76,1.03-45.49,2.7-68.23,4.16c-2.25,0.14-4.49,0.48-7.27,0.79
			c1.13,19.75,2.24,39.07,3.43,59.73c-6.84,0.39-13.16,0.78-19.49,1.11c-4.07,0.21-7.7,0.27-10.81,4.73
			c-2.89,4.15-7.5,3.43-11.02-0.46c-3.27-3.61-3.05-10.35,0.49-13.33c3.79-3.19,8.68-3.56,11,1.09c2.82,5.63,6.4,4.82,10.41,4.57
			c4.59-0.29,9.18-0.62,13.77-0.97c0.42-0.03,0.81-0.38,1.94-0.92c-1.1-19.2-2.22-38.72-3.39-59.18c3.18-0.18,5.64-0.3,8.09-0.47
			c23.42-1.57,46.84-3.25,70.27-4.61c4.26-0.25,6.23-2.28,8.25-6.41c6.92-14.15,9.17-28.81,7.43-45.19
			c-2.13-20.06-2.55-40.34-3.76-61.46c-12.86,0.06-24.95,0.1-37.04,0.17c-8.05,0.05-16.13-0.18-24.14,0.42
			c-3.08,0.23-6.41,1.81-8.95,3.87c-4.31,3.5-9.32,3.73-12.24-0.69c-2.95-4.46-2.8-9.21,0.91-12.65c4.2-3.89,8.24-2.8,12.14,1.84
			c1.72,2.05,4.8,3.69,7.24,3.71C211.48,485.97,232.64,485.68,255.25,485.5z"/>
		<path class="st2" d="M441.86,846.21c-0.75-13.04-1.31-25.34-2.32-37.6c-0.14-1.68-2.29-3.46-3.81-4.69
			c-4.45-3.6-5.88-9.18-2.93-13.52c2.92-4.29,6.87-5.52,10.93-2.28c4.63,3.69,4.5,8.44,1.86,13.82c-1.43,2.91-2.57,6.62-2.37,9.88
			c2.59,43.56,5.38,87.12,8.33,130.66c0.19,2.77,1.66,5.77,3.22,8.05c3.39,4.95,3.88,9.59-0.09,14.01
			c-3.2,3.56-9.09,2.84-11.61-1.39c-3.18-5.34-1.89-9.71,2.22-13.75c1.55-1.52,3.04-4.47,2.92-6.67
			c-1.58-28.35-3.55-56.67-5.16-85.02c-0.34-6.07-2.63-7.36-7.49-6.91c-25.89,2.39-51.81,4.25-77.68,6.85
			c-6.49,0.65-11.16-0.31-13.56-7.98c-1.28-4.08-3.7-5.73-7.79-6.1c-5.03-0.46-7.78-4.69-6.86-10.62c0.84-5.42,4.16-8.29,8.97-7.32
			c5.11,1.02,7.36,5.09,6.79,10.97c-1.21,12.43,3.6,18.12,14.42,17.16c25.43-2.25,50.87-4.44,76.31-6.68
			C437.75,846.93,439.32,846.6,441.86,846.21z"/>
		<path class="st2" d="M318.98,386.31c-0.92-16-1.78-31.04-2.68-46.67c34.89-2,69.5-3.99,104.66-6c0.39,6.83,0.79,13.78,1.24,21.6
			c-3.94,0.67-8.14,1.52-12.37,2.06c-11.64,1.48-23.29,2.84-34.94,4.24c-5.29,0.63-10.49,0.1-13.99,6.94
			c-2.21,4.33-7.97,4.37-10.71-0.07c-1.8-2.92-2.3-8.71-0.96-11.83c2.04-4.74,7.29-5.52,10.61-1.7c3.78,4.35,7.61,4.05,11.95,3.49
			c15.69-2.01,31.37-4.01,47.36-6.04c-0.31-5.33-0.57-9.92-0.86-15.01c-33,1.89-65.69,3.77-98.81,5.67
			c0.75,13.04,1.46,25.51,2.26,39.42c3.98-0.23,7.54-0.42,11.09-0.64c24.57-1.54,49.13-3.09,73.7-4.62c3.17-0.2,6.02,0.12,7.38-4.83
			c1.68-6.16,6.42-7.26,11.19-4.45c4.31,2.55,5.39,7.12,3.29,12.14c-2.07,4.97-6.95,5.87-11.85,3.19c-2.71-1.49-5.96-2.66-8.88-2.49
			c-26.64,1.52-53.26,3.36-79.88,5.11C325.08,385.98,322.37,386.12,318.98,386.31z"/>
		<path class="st2" d="M285.94,643.43c-16.45,0.94-32.9,1.86-49.34,2.84c-5.07,0.3-9.98-0.43-13.5,6.15
			c-2.35,4.39-8.11,3.88-10.63-0.71c-1.65-3.01-1.85-8.77-0.39-11.83c2.22-4.66,7.67-5.42,10.58-1.14
			c3.66,5.38,7.79,4.47,12.23,4.19c16.99-1.04,34-1.9,50.95-3.39c3.55-0.31,7.54-2.19,10.23-4.81c9.38-9.13,18.25-18.93,27.36-28.43
			c2.54-2.65,4.78-4.65,2.91-9.76c-1.97-5.37,0.49-9.9,5.65-11.17c4.71-1.16,8.17,1.21,9.52,6.67c1.4,5.65-1.41,9.83-6.73,11.42
			c-2.69,0.8-5.59,2.1-7.59,4.17c-16.59,17.15-32.88,34.69-49.57,51.71c-2.82,2.87-6.99,4.9-10.78,5.51
			c-24.55,3.94-49.17,7.3-73.73,11.13c-2.09,0.33-4.38,2.33-5.75,4.3c-3.42,4.93-7.51,6.31-11.95,2.69
			c-4.2-3.42-4.89-8.56-1.5-13.07c3.58-4.75,7.8-4.25,12.19-0.41c1.78,1.55,4.44,2.99,6.49,2.71c25.3-3.46,50.71-6.39,75.75-11.51
			c6.79-1.39,12.41-9.67,18.57-14.79C286.58,645.08,286.26,644.25,285.94,643.43z"/>
		<path class="st2" d="M129.65,706.31c0.7,12.19,1.34,23.4,2.06,35.97c10.42-0.6,20.67-1.19,30.91-1.77
			c14.71-0.83,29.43-1.56,44.14-2.54c4.43-0.29,8.71-0.18,12.45-4.74c2.96-3.61,7.99-2.89,10.94,1.7c2.81,4.37,2.54,9.22-1.27,12.67
			c-4.06,3.67-8.17,2.8-11.53-1.82c-1-1.37-1.61-3.1-2.64-5.15c-28.37,1.63-56.8,3.26-86.21,4.94c-0.76-13.32-1.6-26.09-2.08-38.87
			c-0.05-1.27,1.9-3.58,3.15-3.79c30.65-5.19,61.33-10.17,92.65-15.29c0.66,11.46,1.28,22.27,1.95,34.06
			c-16.11-0.01-31.91,0.07-47.72-0.09c-4.76-0.05-8.99-0.8-12.49,4.89c-2.58,4.2-7.62,3.7-10.96-0.37
			c-3.26-3.97-3.36-8.84-0.01-12.75c3.37-3.95,8.12-4.32,10.98-0.05c3.14,4.69,6.6,4.57,10.76,4.57
			c15.17,0.02,30.34,0.27,46.12,0.43c-0.51-8.84-0.98-17.08-1.52-26.52C189.64,696.61,160,701.4,129.65,706.31z"/>
		<path class="st2" d="M759.21,392.7c-4.7,0.27-9.4,0.54-14.1,0.81c-6.89,0.4-13.8,0.64-20.67,1.28c-2.07,0.19-4.04,1.46-6.06,2.24
			c1.02,2.12,1.73,4.55,3.11,6.3c3.76,4.76,4.2,9.57,0.17,13.85c-3.48,3.69-7.84,3.56-11.1-0.55c-3.71-4.67-3.11-9.49,0.9-13.85
			c1.29-1.4,1.96-3.53,2.91-5.33c-1.83-0.62-3.69-1.84-5.48-1.75c-8.5,0.4-16.99,1.08-25.47,1.84c-1.49,0.13-3.42,0.66-4.29,1.83
			c-7.2,9.72-14.2,19.64-21.47,29.78c1.49-0.09,3.84-0.22,6.2-0.36c29.64-1.77,59.26-3.69,88.92-5.17
			c5.48-0.27,9.67-1.91,13.06-6.77c1.98-2.84,4.47-5.21,6.73-7.79c3.16-3.62,6.66-6.51,4.06-13.29c-0.82-2.15,2.75-8.74,5.29-9.56
			c2.56-0.83,8.07,2.17,9.09,4.96c1.04,2.86-1.23,10.47-3.03,10.89c-9.85,2.26-14.27,11.69-20.56,18.45c-3.72,4-7.29,6.11-12.5,6.39
			c-33.78,1.82-67.54,4.01-101.31,6.05c-1.33,0.08-2.68-0.1-4.03-0.16c-0.56-0.66-1.12-1.33-1.68-1.99
			c4.89-5.56,10.01-10.89,14.64-16.73c16.13-20.35,16.06-20.44,39.98-21.87c16.54-0.99,33.09-1.93,49.63-2.83
			c2.35-0.13,4.72,0.09,7.08,0.15C759.22,390.58,759.21,391.64,759.21,392.7z"/>
		<path class="st2" d="M635.74,748.68c0.87,15.14,1.54,29.79,2.71,44.41c0.19,2.4,2.24,5.05,4,6.85
			c20.1,20.41,40.44,40.5,60.39,61.1c4.69,4.84,8.47,11.01,12.07,17.03c3.37,5.66,6.71,11.63,8.7,18
			c4.1,13.09,12.05,18.84,23.69,19.86c4.27,0.37,7.94,2.27,11.76-2.46c3.12-3.87,7.87-2.78,10.88,1.64
			c2.95,4.34,2.72,9.14-1.06,12.59c-3.65,3.33-8.52,3.59-10.94-1.14c-3.01-5.87-7.52-6.95-12.14-7.26
			c-12.32-0.84-20.05-7.42-24.74-20.74c-6.86-19.46-18.64-34.66-33.1-47.88c-16.45-15.05-31.67-31.83-47.63-47.59
			c-3.65-3.61-5.2-7.41-5.4-12.82c-0.56-14.89-1.6-29.77-2.43-44.2c12.52-0.72,24.21-1.39,35.9-2.06c0.05,0.79,0.11,1.58,0.16,2.37
			c-4.25,0.24-8.5,0.49-13.69,0.79c0.61,10.69,1.02,20.32,1.85,29.9c0.15,1.66,2.08,3.18,3.23,4.72c3.39,4.58,3.54,9.35-0.21,13.31
			c-3.78,3.98-8.22,3.58-11.56-0.99c-3.34-4.56-3.11-10.02,1.27-12.98c3.84-2.6,4.03-5.66,3.63-9.75c-0.26-2.61-0.32-5.25-0.47-7.87
			C651.64,746.58,651.64,746.58,635.74,748.68z"/>
		<path class="st2" d="M812.53,330.98c7.9-0.45,14.67-0.84,22.07-1.27c0-2.99,0.12-5.52-0.03-8.04
			c-1.48-24.93-3.02-49.86-4.49-74.79c-0.23-3.9-0.18-7.12-4.48-9.19c-4.7-2.26-5.82-7.6-3.07-12.64c2.73-5.01,7.12-5.88,11.37-2.6
			c4.38,3.38,4.21,8.04,2,13.23c-1.47,3.45-2.81,7.54-2.63,11.27c1.26,25.47,2.95,50.91,4.49,76.37c0.17,2.86,0.33,5.72,0.56,9.8
			c-14.59,0.84-28.68,1.64-41.91,2.4c-0.88,1.47-1.1,1.66-1.12,1.88c-1.18,14.75-0.72,15.36,11.86,14.56
			c5.04-0.32,10.07-0.95,15.11-1.37c3.85-0.32,7.2-0.39,9.91-5.07c2.76-4.76,8.27-4.74,11.21-0.04c1.76,2.82,2.08,8.9,0.57,11.8
			c-2.53,4.86-8.04,5.18-11.28,0.85c-3.44-4.6-7.01-3.98-11.1-3.72c-9.16,0.6-18.33,1.07-28.22,1.64
			c-0.43-7.55-0.86-14.93-1.33-23.25c5.6-0.32,11.21-0.64,17.68-1.01c-0.39-6.86-0.39-12.87-1.28-18.73
			c-0.29-1.89-2.81-3.51-4.5-4.97c-4.2-3.62-5.72-8.7-2.42-12.87c1.99-2.52,7-3.94,9.97-2.98c4.55,1.47,6.49,7.68,3.68,11.59
			C808.79,312.67,813.68,321.67,812.53,330.98z"/>
		<path class="st2" d="M455.32,203.87c-14.18,0.81-27.45,1.59-40.72,2.32c-3.9,0.22-7.23,0.38-9.89,5.09
			c-2.69,4.76-7.61,4.71-11.44,0.66c-3.6-3.8-3.74-8.55-0.52-12.65c3.22-4.1,7.95-4.74,10.97-0.7c3.43,4.58,7.09,4.06,11.17,3.83
			c10.34-0.58,20.66-1.41,31.01-1.68c4.86-0.13,6.21-2.21,5.83-7.65c-1.5-20.97-2.79-41.96-3.77-62.96
			c-0.13-2.84,1.88-5.78,2.96-8.64c0.16-0.42,0.74-0.61,1.04-0.99c16.38-21.62,38.01-27.26,62.13-26.74
			c13.32,0.29,26.66-1.09,39.95-2.3c2.93-0.27,6.09-2.4,8.38-4.67c3.85-3.82,7.78-4.87,11.74-1.21c4.08,3.79,4.19,9.03,0.79,13.21
			c-3.45,4.25-7.53,3.55-11.77,0.15c-2.37-1.89-5.61-3.54-8.36-3.41c-23.66,1.19-47.31,2.71-70.94,4.43
			c-2.75,0.2-5.77,1.66-7.99,3.55c-6.95,5.92-13.47,12.5-20.4,18.46c-3.44,2.96-4.7,6.04-4.34,11.19
			C452.76,156.24,453.91,179.32,455.32,203.87z"/>
		<path class="st2" d="M813.72,731.24c-1.06-18.55-2.82-37.39-2.99-56.23c-0.11-12.65-3.57-21.85-12.71-29.34
			c-7.69-6.3-14.72-13.78-21.43-21.45c-2.62-3-4.76-7.84-5.06-12c-2.41-33.57-4.25-67.18-6.53-100.76
			c-0.22-3.26-1.78-6.73-3.48-9.51c-2.97-4.86-3.46-9.49,0.33-13.4c3.76-3.88,8.24-3.59,11.55,1.09c3.27,4.62,2.94,10.06-1.43,12.98
			c-3.87,2.58-3.91,5.66-3.65,9.75c2.13,33.32,4.09,66.66,6.43,99.96c0.23,3.22,2,7.04,4.12,9.28c9.51,10.1,19.6,19.48,29.01,29.68
			c2.53,2.75,4.56,7.38,4.87,11.31c1.55,19.66,2.6,39.36,3.49,59.06c0.25,5.55,1.98,7.45,6.74,6.81c5.7-0.76,11.51-0.66,17.17-1.62
			c2.34-0.4,4.81-2.15,6.53-4.09c3.72-4.21,8.8-5.12,12.23-1.24c3.49,3.95,3.64,8.46,0.72,12.76c-2.86,4.21-8.03,3.73-12.26,0.1
			c-2.28-1.95-5.47-3.52-8.22-3.52c-7.57,0-15.13,0.95-22.7,1.45C815.81,732.37,815.15,731.84,813.72,731.24z"/>
		<path class="st2" d="M882.44,674.19c-3.17-3.14-6.85-5.11-7.64-8.04c-0.8-3,0.27-8.79,2.23-10.1c4.24-2.84,3.36-6.45,3.65-10.57
			c1.12-16.38-3.72-29.74-15.04-40.12c-0.18-0.16-0.3-0.41-0.47-0.58c-16.6-15.79-25.92-35.16-23.45-60.33
			c0.62-6.31-2.22-9.98-7.19-11.53c-11.13-3.46-14.12-11.68-14.43-24.39c-0.68-27.57-2.92-55.13-4.8-82.67
			c-0.38-5.55,0.39-9.13,5.7-10.06c1.78-0.31,3.59-1.1,5.14-2.14c2.53-1.69,6.75-3.58,6.89-5.72c0.31-5.08,1.99-11.35-4.94-14.45
			c-4.4-1.97-5.12-7.49-2.75-12.18c2.38-4.72,6.37-6,10.67-3.29c4.31,2.71,6.16,8,3.25,11.97c-4,5.46-3.26,11.08-2.7,16.91
			c0.45,4.68-0.75,7-4.76,8.65c-13.67,5.63-13.64,5.82-12.63,22.59c1.54,25.72,3.29,51.43,4.56,77.16c0.29,5.83,1.92,9.63,6.8,11.13
			c11.72,3.6,15.88,12.63,14.83,25.68c-1.36,16.83,3.59,30.73,15.31,41.52c1.78,1.64,2.99,4.1,4.75,5.78
			c13.27,12.67,20.01,28.32,18.54,48.27c-0.2,2.7,2.53,5.6,3.42,8.59c0.97,3.27,2.37,7.05,1.72,10.06
			C888.55,669,885.42,670.88,882.44,674.19z"/>
		<path class="st2" d="M423.23,487.45c1.11,19.36,2.15,37.95,3.25,56.54c0.85,14.44,1.63,28.89,2.78,43.3
			c0.22,2.75,1.59,5.76,3.18,7.95c3.55,4.89,3.96,9.52,0.14,14.01c-3.14,3.69-8.93,3.07-11.62-1.17c-3.33-5.23-2.2-9.64,1.89-13.76
			c1.57-1.58,3.22-4.44,3.09-6.62c-1.8-30.71-3.9-61.4-5.96-92.09c-0.09-1.27-0.46-2.52-0.82-4.35c-3.5,0.2-6.85,0.38-10.19,0.59
			c-22.51,1.42-45.03,2.67-67.52,4.46c-3.56,0.28-7.48,2.2-10.3,4.72c-8.81,7.87-17.33,16.2-25.61,24.79
			c-2.05,2.13-3.39,5.75-3.99,8.97c-1.09,5.87-4.65,9.59-9.6,8.48c-4.95-1.11-7.07-5.13-6.45-10.43c0.7-5.99,4.33-7.78,9.47-7.63
			c2.77,0.08,6.16-0.67,8.24-2.54c8.79-7.91,16.95-16.73,25.85-24.47c3.35-2.91,7.96-5.05,12.16-5.42
			c25.22-2.18,50.48-3.75,75.73-5.49C418.53,487.17,420.12,487.35,423.23,487.45z"/>
		<path class="st2" d="M911.62,660.87c-0.31-2.68-0.74-5.35-0.92-8.03c-1.37-21.24-2.48-42.51-4.18-63.72
			c-0.37-4.65-2.02-9.71-4.37-13.57c-7.79-12.81-16.47-24.94-24.17-37.82c-2.69-4.5-4.28-10.3-5.07-15.72
			c-1.14-7.75-1.42-15.72-1.43-23.59c-0.01-6.49-2.42-8.1-7.63-7.44c-5.87,0.74-11.82,0.77-18.56,1.16
			c-1.01-17.69-2.08-34.4-2.77-51.13c-0.07-1.72,1.8-4.05,3.3-5.18c5.53-4.16,11.46-7.64,16.84-12.01c1.81-1.47,3.36-4.79,3.4-7.33
			c0.11-7.06-0.63-14.15-1.06-21.57c-1.94-0.97-4.68-1.35-5.37-2.9c-1.61-3.61-3.94-8.73-2.79-11.45c1.15-2.72,6.28-4.79,9.45-4.4
			c4.45,0.54,7.08,6.35,4.95,10.22c-5.1,9.27-2.29,18.79-1.73,28.1c0.4,6.68-0.69,11.32-6.27,13.6
			c-15.17,6.21-20.59,17.9-16.64,36.15c1.57,7.26,1.05,15.07,1.56,23.97c6.98-0.4,13.33-0.47,19.62-1.22
			c4.88-0.58,6.88,1.5,6.59,6.92c-0.04,0.78,0.17,1.58,0.11,2.36c-1.84,23.97,5.64,44.08,20.2,61.23
			c11.72,13.8,16.65,30,16.34,49.21c-0.24,15.15,1.85,30.39,2.85,45.6c0.18,2.75,0.07,5.51,0.1,8.27
			C913.18,660.69,912.4,660.78,911.62,660.87z"/>
		<path class="st2" d="M782.27,372.8c-8.12,0.47-16.24,0.92-24.36,1.4c-29.18,1.74-58.36,3.36-87.52,5.39
			c-3.66,0.25-7.58,1.88-10.68,4.13c-9.45,6.86-18.37,14.63-27.86,21.41c-4.34,3.11-5.35,6.6-4.97,12.2
			c2.98,44.07,5.63,88.16,8.52,132.23c0.38,5.75,0.24,10.72-4.01,14.92c-1.42,1.41-1.29,5.03-1.61,7.69
			c-0.7,5.82-3.47,9.28-8.66,8.87c-4.81-0.39-7.65-4.03-7.47-9.54c0.19-5.93,3.47-8.95,8.62-8.81c7.91,0.2,10.43-2.53,9.87-11.82
			c-2.09-34.64-4.28-69.28-6.42-103.92c-0.7-11.29-1.67-22.57-1.85-33.86c-0.05-2.98,2.34-5.97,3.63-8.94
			c0.09-0.2,0.37-0.3,0.56-0.44c11.53-8.94,22.09-20.97,34.85-25.96c12.76-4.99,27.71-2.99,41.7-3.95
			c23.41-1.61,46.83-3.16,70.25-4.69c2.39-0.16,4.81,0.04,7.22,0.07C782.15,370.38,782.21,371.59,782.27,372.8z"/>
		<path class="st2" d="M699.84,172.33c-8.23,0.47-15.06,0.86-22.87,1.31c0.98,17.07,1.87,33.77,2.91,50.47
			c0.93,14.94,2.16,29.87,2.98,44.82c0.25,4.47,1.59,7.06,5.3,8.98c11.58,6.01,22.93,12.61,34.51,18.59
			c2.19,1.13,5.19,1.11,7.6,0.53c5.68-1.38,10.56,0.97,11.47,6.63c0.87,5.4-1.13,9.5-5.88,10.69c-5.42,1.35-8.49-1.81-10.19-7.83
			c-0.71-2.52-2.71-5.33-4.77-6.52c-11.77-6.79-23.81-12.96-35.56-19.79c-2.25-1.31-5.01-4.54-5.19-7.06
			c-2.35-33.29-4.28-66.61-6.28-99.93c-0.04-0.73,0.28-1.48,0.55-2.79c9.01-0.52,18.06-1.04,28.27-1.62
			c0.67,11.66,1.33,23.12,1.98,34.57c0.63,11.02,1.23,22.05,1.91,33.06c0.36,5.8-0.26,11.45,5.65,15.5
			c3.94,2.7,3.67,9.27-0.23,12.14c-2.58,1.9-7.67,2.14-10.4,0.44c-4.11-2.55-4.87-8.91-1.36-12.18c4.55-4.23,3.64-8.95,3.35-14.01
			C702.4,216.62,701.13,194.9,699.84,172.33z"/>
		<path class="st2" d="M438.13,489.6c-1.8-31.34-3.51-61.19-5.26-91.74c6.91-0.4,13.59-0.78,20.17-1.16
			c0.74,12.94,1.3,25.47,2.3,37.96c0.21,2.67,1.55,5.76,3.22,7.69c3.89,4.5,4.97,9.17,1.37,13.9c-3.39,4.44-7.91,4.5-11.54,0.26
			c-3.88-4.54-3.16-9.33,0.55-13.91c1.49-1.83,3.03-4.61,2.97-6.92c-0.32-11.54-1.17-23.08-1.87-35.27
			c-4.15,0.24-8.58,0.49-13.58,0.78c1.6,27.9,3.2,55.77,4.84,84.46c7.62-0.44,14.65-0.84,22.36-1.28c0.39,3.55,0.8,6.34,0.97,9.13
			c0.86,14.17,1.63,28.35,2.47,42.53c0.31,5.14,0.26,9.93,4.57,14.07c3.56,3.42,2.75,8.87-0.95,12.44c-3.72,3.59-7.8,3.14-11.07-1
			c-3.28-4.15-3.44-9.52,0.39-12.52c4.3-3.36,4.21-7.27,3.89-12.1c-0.83-12.33-1.45-24.67-2.16-37.01
			c-0.67-11.62-0.68-11.62-10.54-11.06C447.19,489.08,443.11,489.32,438.13,489.6z"/>
		<path class="st2" d="M193.21,758.24c13.56-0.78,27.1-1.89,40.67-2.09c3.38-0.05,8.18,1.72,10.02,4.57
			c9.22,14.34,20.7,17.84,35.84,16.07c26.28-3.08,52.81-3.74,79.24-5.25c2.63-0.15,5.52,0.29,7.96,1.42
			c4.58,2.11,8.34,5.47,14.15,3.1c4.12-1.68,8.72,2.35,8.43,7.74c-0.18,3.53-2.99,8.3-5.78,9.8c-4.2,2.26-8.02-0.78-9.57-6.14
			c-2.64-9.17-7.24-12.86-16.13-12.34c-31.26,1.82-62.53,3.57-93.77,5.7c-5.1,0.35-9.07-0.65-11.98-5.56
			c-8-13.52-18.7-16.91-32.66-15.12c-22.59,2.9-45.44,3.42-68.15,5.35c-2.99,0.26-6.14,2.42-8.61,4.59
			c-4.08,3.57-8.13,4.18-11.78,0.1c-3.41-3.8-3.56-8.7-0.16-12.7c3.65-4.3,8.56-4.43,11.45,0.22c3.01,4.84,6.37,4.27,10.22,4.05
			c13.56-0.79,27.12-1.56,40.68-2.34C193.26,759.02,193.24,758.63,193.21,758.24z"/>
		<path class="st2" d="M179.12,657.96c4.14-5.68,8.87-10.93,12.29-17.13c7.69-13.97,18.34-18.89,32.77-18.43
			c15.61,0.51,31.24-1.57,46.87-2.46c4.64-0.26,7.56-1.29,7.1-8.2c-3.33-50.38-6.31-100.78-9.42-151.18
			c-0.08-1.26-0.36-2.51-0.73-4.97c-29.55,1.69-58.87,3.38-88.18,5.06c-0.05-0.82-0.09-1.64-0.14-2.47
			c30.21-1.73,60.42-3.47,92.12-5.28c0.42,7.29,0.85,15.04,1.31,22.79c2.7,45.14,5.42,90.27,8.11,135.41
			c0.69,11.52,0.67,11.68-9.37,12.32c-19.07,1.22-38.13,2.52-57.22,3.16c-6.37,0.21-10.67,2.77-14.44,8.36
			c-5.3,7.84-11.18,15.16-16.86,22.65c-0.65,0.86-1.68,1.35-2.53,2.01C180.23,659.05,179.68,658.5,179.12,657.96z"/>
		<path class="st2" d="M789.87,461.12c1.13,19.76,1.97,38.36,3.43,56.91c0.37,4.67,1.94,9.77,4.29,13.64
			c14.38,23.7,28.88,47.34,43.93,70.5c5.8,8.93,8.87,18.04,9.12,29.03c0.11,4.72,2.33,9.61,4.26,14.05
			c2.23,5.12,2.79,9.7-1.48,13.28c-3.9,3.27-8.04,2.49-11-1.89c-2.94-4.35-2.89-9.66,1.24-12.4c4.18-2.77,3.58-6.33,3.72-10.52
			c0.4-11.87-3.33-21.59-9.61-31.17c-14.99-22.88-29.28-46.36-43.54-69.84c-2.22-3.66-3.65-8.53-4.01-12.96
			c-1.3-15.98-2.11-32.01-2.84-48.03c-0.22-4.98-1.58-7.09-6.23-6.6c-7.32,0.77-14.76,0.46-22.02,1.59c-3.19,0.49-6.4,2.91-9.01,5.3
			c-3.99,3.64-7.92,4.48-11.76,0.5c-3.62-3.74-3.76-8.74-0.61-12.68c3.4-4.27,8.34-4.55,11.56-0.19c2.84,3.85,5.56,3.62,9.04,3.36
			C768.43,462.25,778.51,461.77,789.87,461.12z"/>
		<path class="st2" d="M590.29,332.89c9.88-0.57,19-1.49,28.13-1.47c5.69,0.01,9.23-2.51,12.47-7.59
			c9.15-14.33,18.96-28.11,27.98-42.55c2.27-3.63,3.79-8.95,3.56-13.38c-2.45-45.42-5.33-90.81-8.09-136.21
			c-0.19-3.06-0.35-6.12-0.53-9.18c0.67-0.16,1.34-0.31,2-0.47c0.47,1.6,1.25,3.18,1.35,4.8c2.99,48.55,5.95,97.09,8.73,145.65
			c0.15,2.59-0.74,5.76-2.1,7.84c-10.79,16.51-21.67,32.95-32.92,49.06c-1.83,2.61-5.47,4.56-8.47,4.91
			c-9.29,1.1-18.68,1.28-28.86,1.86c0.65,11.28,0.63,21.54,1.97,31.59c1.5,11.15-0.62,20.56-6.55,29.24
			c-2.6,3.81-4.66,7.63-3.28,13.53c1.19,5.09-2.09,9.08-6.98,9.53c-4.78,0.44-8.22-2.3-8.78-7.89c-0.57-5.81,1.97-10.18,7.23-10
			c4.57,0.15,6.15-2.73,8.49-6.11c6.18-8.93,8.09-18.62,6.68-29.98C591.03,355.5,590.96,344.74,590.29,332.89z"/>
		<path class="st2" d="M1018.54,422.61c1.45,25.37,2.86,49.93,4.27,74.43c-11.98,3.64-12.74,3.33-19.62-7.71
			c-2.29-3.67-4.71-7.23-6.86-11c-2.35-4.13-4.56-7.1-9.8-6.7c-4.73,0.36-7.36-4.04-7.13-9.6c0.21-5.32,3.12-8.14,7.6-8.23
			c4.86-0.1,8.29,2.91,8.07,8.6c-0.53,14.13,9.93,21.24,15.45,31.43c0.94,1.73,5.4,1.01,8.7,1.49c0.21-2.6,0.56-4.35,0.46-6.07
			c-1.02-18.65-2.25-37.3-3.09-55.95c-0.26-5.81-2.04-7.58-7.19-7.22c-33.99,2.34-68.02,4.27-102.01,6.65
			c-2.47,0.17-5.09,2.45-7.07,4.47c-3.86,3.93-7.81,4.69-11.67,0.63c-3.55-3.74-3.84-8.63-0.7-12.7c3.41-4.42,8.33-4.86,11.43-0.25
			c3.03,4.51,6.22,4.35,10.15,4.1c34.46-2.22,68.93-4.36,103.4-6.5C1014.52,422.37,1016.12,422.54,1018.54,422.61z"/>
		<path class="st2" d="M748.48,753.97c0.56,9.84,1.13,19.68,1.76,30.64c-6.54-1.84-12.21-2.93-17.51-5.19
			c-1.8-0.77-3.61-4.39-3.82-6.86c-1.21-13.61-1.77-27.28-2.92-40.89c-0.27-3.2-1.5-6.63-3.12-9.33
			c-8.23-13.76-16.77-27.29-25.12-40.96c-1.84-3.01-3.27-4.98-7.19-3.42c-5.28,2.11-9.12-1.21-10.22-7.3
			c-0.99-5.49,1.69-9.47,6.3-10.34c5.36-1.02,8.58,2.16,9.58,8.58c0.46,2.95,1.62,6,3.12,8.5c7.74,12.87,15.39,25.83,23.68,38.22
			c4.62,6.9,6.59,14.27,7,22.56c0.44,8.93,1.6,17.88,1.36,26.77c-0.24,8.91,2.91,13.06,10.45,13.59c1.34,0.09,2.67,0.5,4.91,0.95
			c-0.64-11.11-1.24-21.67-1.96-34.22c10.26,7.01,19.09,13.04,28.13,19.22c1.92-1.46,3.84-4.17,5.57-3.99
			c3.46,0.36,8.44,1.26,9.76,3.89c1.34,2.65,0.11,9.37-2.04,11.17c-2.13,1.78-7.63,1.03-10.2-1.01
			c-8.71-6.93-16.77-14.93-25.08-22.52C750.11,752.67,749.29,753.32,748.48,753.97z"/>
		<path class="st2" d="M774.7,353.85c-26.17-13.19-50.9-25.66-75.64-38.14c-3.81-1.92-7.61-3.85-11.4-5.82
			c-3.94-2.05-7.31-4.17-11.94-0.39c-3.61,2.95-8.2,0.92-10.32-4.31c-2.05-5.07-0.83-9.55,3.52-11.96c4.6-2.55,8.14-0.66,11.12,4.34
			c1.89,3.18,4.59,6.43,7.57,7.98c25.47,13.26,51.09,26.15,76.67,39.11c1.86,0.94,3.81,1.63,6.65,2.84
			c-1.18-20.57-2.31-40.29-3.51-61.25c14.38-0.82,28.04-1.61,42.64-2.45c-1.52-26.48-2.97-51.72-4.41-76.96
			c0.71-0.05,1.42-0.1,2.12-0.15c1.5,26.22,3.01,52.45,4.6,80.14c-13.16,0.75-26.98,1.55-41.38,2.37
			C772.25,311.2,773.43,331.76,774.7,353.85z"/>
		<path class="st2" d="M1041.83,397.42c0.6,10.4,0.86,19.58,1.79,28.68c0.34,3.29,1.85,6.73,3.58,9.5
			c2.97,4.75,3.79,9.31-0.03,13.38c-3.73,3.97-8.19,3.86-11.54-0.78c-3.25-4.5-2.46-8.97,1.02-13.36c1.83-2.3,3.36-5.85,3.4-8.88
			c0.09-7.84-0.72-15.71-1.23-24.54c-2.89,0.01-5.31-0.1-7.72,0.05c-28.72,1.75-57.45,3.42-86.16,5.42
			c-4.76,0.33-8.51-0.57-11.57-5.01c-1.57-2.27-3.86-3.92-5.34-6.24c-6.94-10.89-15.81-15.19-27.44-12.37
			c-3.8,0.92-7.17,0.74-9.78,5.35c-2.78,4.88-7.65,4.67-11.43,0.64c-3.54-3.77-3.75-8.63-0.49-12.69c3.49-4.34,8.3-4.8,11.44-0.17
			c2.96,4.36,6.22,4.33,9.68,3.48c13.03-3.19,23.28,1.25,30.96,13.94c4.98,8.24,11.68,10,20.32,9.26
			c27.29-2.31,54.67-3.53,82.02-5.16C1035.8,397.76,1038.31,397.62,1041.83,397.42z"/>
		<path class="st2" d="M298.15,412.72c-0.89-15.6-1.6-30.52-2.72-45.4c-0.24-3.17-2.16-8.91-3-8.85c-3.92,0.28-8.65,0.98-11.38,3.73
			c-5.19,5.22-13.01,5.21-14.56-1.75c-0.67-3,0.14-8.03,1.98-9.68c2.15-1.92,7.92-2.82,9.06-1.26c4.67,6.38,10.26,4.55,15.81,4.54
			c1.32,0,2.65,0.39,4.63,0.71c1.03,17.94,2.05,35.7,3.11,54.22c2.88,0.02,5.11,0.18,7.32,0.04c27.98-1.77,55.97-3.54,83.95-5.41
			c4.66-0.31,9.11-0.21,11.99-6.43c2.12-4.6,7.06-4.63,10.88-1.12c3.83,3.52,4.33,8.23,1.43,12.58c-2.92,4.38-7.43,5.1-10.92,1.56
			c-3.42-3.47-6.51-3.45-10.61-3.18C363.24,409.11,331.37,410.82,298.15,412.72z"/>
		<path class="st2" d="M797.66,372.13c-0.12,1.81-0.39,2.88-0.23,3.85c2.7,16.64-0.97,32.19-5.24,47.74
			c-0.85,3.08-0.3,7.04,0.53,10.3c1.46,5.7,0.5,9.96-4.17,12.47c-4.19,2.25-9.51-0.46-10.68-5.44c-1.3-5.55,0.3-9.42,5.16-11.99
			c2.42-1.28,4.98-4.13,5.82-6.94c2.59-8.62,5.37-17.43,6.2-26.43c0.8-8.7-0.74-17.72-1.28-27.3c3.22-0.35,5.67-0.71,8.14-0.87
			c37.19-2.36,74.38-4.6,111.56-7.22c2.87-0.2,5.99-2.48,8.24-4.76c3.84-3.9,7.58-4.77,11.74-1.19c3.56,3.07,3.96,9.88,0.77,13.35
			c-3.72,4.04-7.6,3.73-11.77,0.14c-2.13-1.84-4.97-3.97-7.37-3.83c-37.65,2.22-75.28,4.78-112.92,7.29
			C800.8,371.39,799.48,371.78,797.66,372.13z"/>
		<path class="st2" d="M101.18,719.89c-2.98-2.99-6.66-4.98-7.41-7.9c-0.77-3.01,0.36-8.29,2.37-10.12
			c2.99-2.71,3.59-5.09,3.33-9.06c-1.3-19.95-2.19-39.93-3.67-59.87c-0.26-3.44-1.86-8.13-4.18-9.82
			c-16.29-11.83-21.54-28.43-21.6-49.89c-0.07-26.76-2.92-53.56-4.47-80.35c-0.24-4.09-0.6-7.13-4.68-9.32
			c-4.59-2.46-5.71-7.81-2.83-12.75c2.81-4.81,7.08-5.87,11.36-2.22c4.21,3.6,4.39,8.15,1.74,13.23c-1.29,2.47-2.64,5.54-2.49,8.26
			c1.95,34.93,4.04,69.86,6.49,104.76c0.26,3.67,2.14,8.65,4.66,10.5c15.85,11.59,21.74,27.7,20.66,48.6
			c-0.6,11.45,1.09,23.1,1.77,34.65c0.32,5.46,0.34,10.72,4.73,15.01c1.58,1.54,1.7,6.52,0.89,9.31
			C107.13,715.35,104.18,716.9,101.18,719.89z"/>
		<path class="st2" d="M836.87,735.29c1.37,23.95,2.72,47.51,4.13,71.96c6.7-2.29,12.57-4.27,18.43-6.3
			c2.19-0.76,4.47-2.62,6.51-2.27c10.92,1.89,20.15,10.5,31.52,11.31c0.64,0.05,2.32,7.29,1.16,9.62c-1.35,2.7-5.53,5.37-8.08,4.9
			c-2.55-0.47-5.85-4.44-6.64-7.56c-2.21-8.68-12.59-16.36-20.16-13.74c-8.08,2.8-16.15,5.68-25.64,9.03
			c-0.54-9.43-1.03-17.95-1.52-26.46c-0.75-13.13-1.73-26.25-2.16-39.38c-0.19-5.96-1.57-8.95-7.36-9.58
			c-7.74-0.83-15.39-2.97-23.73-4.68c-0.87-15.09-1.74-29.76-2.53-44.43c-0.2-3.67-0.24-6.61-4.23-8.54
			c-4.93-2.38-6.07-8.78-3.14-13.24c2.9-4.42,6.84-5.12,11-2.4c4.18,2.73,4.61,8.64,1.91,13.84c-1.38,2.65-2.52,6.01-2.43,9.02
			c0.33,11.56,1.35,23.1,1.79,34.66c0.22,5.84,1.74,8.99,7.5,9.62C820.93,731.49,828.58,733.6,836.87,735.29z"/>
		<path class="st2" d="M554.89,961.32c-0.52-9.11-1.32-18.22-1.46-27.33c-0.08-5.1-1.87-8.14-5.49-10.88
			c-7.14-5.4-14.19-11.02-20.88-17.12c-2.19-2-4.24-5.7-4.47-8.76c-1.88-25.95-3.22-51.94-5.01-77.9c-0.34-4.88,0.97-7.65,4.5-10.14
			c8.35-5.9,16.62-11.99,24.52-18.63c2.04-1.72,3.73-5.79,3.6-8.72c-0.84-20.22-2.24-40.41-3.35-60.62c-0.22-4.11-0.67-7.1-4.7-9.3
			c-4.65-2.54-5.44-7.95-2.68-12.82c2.58-4.54,6.59-5.45,10.85-2.58c4.21,2.84,4.78,8.52,2.14,13.78c-1.36,2.71-2.61,6.09-2.46,9.1
			c1.1,21.78,2.69,43.54,3.75,65.32c0.12,2.47-1.5,5.95-3.3,7.42c-8.16,6.68-16.57,12.99-25.09,19.06
			c-3.47,2.47-4.99,5.11-4.64,10.07c1.73,24.64,2.99,49.32,4.78,73.96c0.21,2.9,2.04,6.44,4.08,8.28
			c6.9,6.23,14.11,12.05,21.46,17.57c3.72,2.79,5.17,6.07,5.29,11.03c0.24,9.7,1.02,19.39,1.57,29.08
			C556.92,961.24,555.91,961.28,554.89,961.32z"/>
		<path class="st2" d="M897.08,488.59c0.5,8.65,0.69,17.34,1.62,25.94c0.46,4.25,1.63,8.8,3.62,12.41
			c10.83,19.69,21.62,39.45,33.27,58.51c5.29,8.64,4.37,17.9,5.82,27.05c0.68,4.27,2.27,8.6,4.29,12.32
			c2.76,5.08,2.97,9.55-0.95,13.32c-3.71,3.57-7.91,2.99-11.03-1.23c-3.33-4.5-3.29-10.06,1.02-13.03c3.82-2.64,3.67-5.6,3.65-9.65
			c-0.07-12.7-3.28-23.81-9.89-34.45c-10.44-16.8-19.91-34.39-29.5-51.85c-1.86-3.4-3.06-7.69-3.37-11.67
			c-1.3-16.5-2.03-33.04-3.23-49.54c-0.22-3.08-1.39-8.51-2.53-8.67c-5.32-0.76-10.53-6.23-16.24-1.03
			c-5.79,5.28-13.11,2.59-13.46-5c-0.14-3.05,1.6-7.83,3.68-8.91c2.5-1.29,8.35-0.62,9.12,1.18c3.59,8.35,10.22,8.21,16.31,9.24
			c4.73,0.8,5.95,3.37,6.07,8.33c0.21,8.92,0.94,17.84,1.45,26.76C896.89,488.6,896.98,488.6,897.08,488.59z"/>
		<path class="st2" d="M623.45,363.03c-3.39-0.02-5.61,0.02-7.82-0.07c-1.87-0.08-3.74-0.31-5.61-0.48
			c-0.04-0.98-0.08-1.95-0.13-2.93c6.45-0.37,12.89-0.8,19.35-1.09c3.92-0.18,7.14-0.45,9.77-5.15c2.64-4.71,8.16-5.12,11.25-0.52
			c1.86,2.76,2.37,8.83,0.95,11.83c-2.36,5.02-7.23,4.95-11.37,1.45c-7.75-6.54-10.54-6.05-15.52,3.26
			c-9.29,17.38-18.67,34.7-27.75,52.22c-1.53,2.94-2.6,6.83-2.43,10.21c1.15,22.32,2.55,44.63,4.28,66.91
			c0.23,2.96,2.35,6.28,4.39,8.46c3.84,4.1,4.98,8.45,2.08,13.23c-2.73,4.49-6.72,5.24-10.89,2.14c-4.03-3-4.35-8.91-1.68-13.94
			c1.5-2.82,2.79-6.48,2.62-9.69c-1.17-22.31-2.89-44.59-4.03-66.91c-0.2-3.89,0.8-8.37,2.52-11.72
			c8.41-16.46,17.26-32.61,25.93-48.9C620.64,368.99,621.75,366.52,623.45,363.03z"/>
		<path class="st2" d="M568.42,355.11c-2.21-3.38-5.52-6.45-6.37-10.21c-1.11-4.89,1.9-9.19,6.43-8.9c5.39,0.35,7.23-3.4,10.22-7.1
			c11.99-14.82,16.18-31.71,12.61-51.75c-1.46-8.19-1.44-16.74-1.69-25.14c-0.13-4.21-1.54-6.07-5.12-6.73
			c-5.45-1.01-10.81-2.82-16.28-3.59c-4.42-0.63-5.61-3.04-5.83-7.76c-0.8-17.06-1.98-34.1-2.91-51.16
			c-0.22-4.05-0.48-7.17-4.65-9.31c-4.77-2.44-5.38-7.92-2.77-12.79c2.52-4.69,6.68-5.55,10.81-2.63c4.52,3.19,4.68,7.75,2.69,13.06
			c-1.42,3.79-2.88,8.04-2.75,12.06c0.47,15.23,1.96,30.43,2.29,45.65c0.15,7.07,2.61,9.69,8.31,10.44
			c4.79,0.63,9.63,1.6,14.19,3.35c1.95,0.75,4.44,3.75,4.62,5.92c1.45,17.8,2.57,35.64,3.4,53.48c0.14,3.09-1.05,6.62-2.5,9.32
			c-3.46,6.43-7.46,12.49-11.23,18.71c-2.67,4.41-5.45,8.26-4.44,14.79c0.46,2.98-3.66,6.8-5.71,10.24
			C570.62,355.09,569.52,355.1,568.42,355.11z"/>
		<path class="st2" d="M786.01,251.32c-1.2-20.95-2.22-40.09-3.53-59.22c-0.12-1.71-1.93-3.72-3.39-4.82
			c-4.99-3.77-6.61-9.27-3.51-13.9c2.94-4.39,6.93-4.97,11.04-2.26c4.35,2.87,4.52,8.76,1.34,14.44c-1.32,2.36-2.18,5.61-2.05,8.4
			c0.91,19.66,2.14,39.31,3.34,60.23c-12.12,0.7-24.12,1.38-36.39,2.09c1,17.45,1.82,33.64,3,49.81c0.14,1.91,2.24,3.69,3.49,5.48
			c3.29,4.68,3.32,9.4-0.51,13.27c-3.6,3.64-7.84,3.27-11.07-0.9c-3.41-4.41-3.55-10.01,0.74-13.03c4.16-2.93,3.8-6.45,3.55-10.64
			c-0.89-15.2-1.75-30.4-2.69-46.84C761.39,252.73,773.37,252.04,786.01,251.32z"/>
		<path class="st2" d="M166.97,355.78c2.54-3.34,4.13-7.39,6.49-8.05c2.75-0.77,8.01,0.39,8.96,2.53c2.62,5.88,6.38,5,10.42,4.73
			c11.24-0.76,22.49-1.29,33.69-2.45c4.72-0.49,6.95,1.14,8.63,6.29c5.58,17.2,5.76,17.13,21.65,16.22
			c8.26-0.47,16.53-0.9,24.79-1.44c5.52-0.36,11.11,0.56,15.14-6.16c1.1-1.84,7.61-1.47,10.24,0.44c3.96,2.87,4.19,9,0.5,12.17
			c-2.45,2.11-8.77,3.06-10.12,1.31c-4.25-5.55-9-4.36-13.89-4.07c-13.31,0.77-26.62,1.52-39.91,2.62c-3.59,0.3-5.8-0.59-6.64-4.74
			c-0.05-0.25-0.2-0.48-0.28-0.72c-6.51-18.42-6.52-18.48-24.04-17.39c-8.02,0.5-16.06,1.02-24.03,2.1
			c-2.45,0.33-4.56,2.98-7.03,3.77c-2.68,0.86-5.95,1.88-8.3,0.82C170.96,362.74,169.51,359.19,166.97,355.78z"/>
		<path class="st2" d="M1003.81,382.42c5.98-0.34,11.95-0.66,17.93-1.03c5.05-0.31,10.03,0.65,12.92-6.77
			c1.81-4.66,7.67-4.94,10.66-0.88c1.99,2.7,2.78,8.48,1.66,11.75c-1.69,4.96-6.89,6.31-10.43,2.72c-4.15-4.2-8.33-3.64-12.84-3.33
			c-14.46,0.98-28.91,2.23-43.39,2.86c-2.85,0.12-6.08-1.53-8.68-3.26c-17.37-11.58-25.49-28.43-23.31-51.55
			c0.61-6.43-0.57-13.11-0.99-19.67c-0.35-5.51,0.34-10.88-6.02-14.01c-4.16-2.05-4.26-8.01-1.39-12.4
			c2.67-4.07,6.51-4.96,10.41-2.24c4.17,2.91,5.98,8.17,2.94,12.11c-4.17,5.4-3.15,11-2.83,16.87c0.74,13.66,1.25,27.34,2.53,40.95
			c0.37,3.98,2.21,8.69,4.75,11.41C974.78,384.22,974.9,384.08,1003.81,382.42z"/>
		<path class="st2" d="M307.98,887.54c-4.55,0.26-10.74,0.53-16.93,1c-5.3,0.4-10.63-0.45-14.46,6.11
			c-2.37,4.06-7.18,2.99-10.42-0.58c-3.29-3.63-3.97-8.78-0.65-11.86c2.42-2.24,8.73-3.75,9.98-2.17
			c8.25,10.47,17.4,2.66,25.93,4.24c0.24-0.61,0.49-1.21,0.73-1.82c-8.93-8.66-17.76-17.44-26.87-25.84
			c-1.34-1.24-3.98-0.99-5.98-0.89c-12.88,0.64-25.77,1.22-38.61,2.34c-2.55,0.22-5.31,2.21-7.29,4.25
			c-3.87,3.99-7.85,4.66-11.72,0.81c-3.96-3.94-4.04-9.08-0.43-13.2c3.61-4.11,7.62-3.23,11.81,0.15c2.51,2.02,5.88,3.84,8.8,3.78
			c12.66-0.26,25.29-1.54,37.95-1.77c3.3-0.06,7.48,1.33,9.85,3.81C289.53,866.23,298.84,877.22,307.98,887.54z"/>
		<path class="st2" d="M973.47,466.79c-0.41-7.09-0.73-12.73-1.12-19.5c-12.66,0.73-24.99,1.31-37.3,2.19
			c-6.45,0.46-13.72-1.76-17.58,7.75c-0.65,1.59-7.96,1.79-10.04-0.25c-2.02-1.97-2.79-8.87-1.29-11.37c1.5-2.5,7.97-4.33,9.68-2.76
			c4.89,4.5,9.81,3.61,14.97,3.33c14.65-0.8,29.3-1.67,44.41-2.53c0.51,8.82,0.96,16.82,1.53,26.71
			c-11.99,0.69-23.82,1.77-35.67,1.89c-7.07,0.07-13.17,2.06-18.16,7.5c-1.94,2.11-3.68,4.97-4.45,7.87
			c-1.64,6.11-4.98,8.96-10.27,7.43c-4.65-1.35-6.85-5.63-5.65-11c1.3-5.8,5.08-7.17,10.15-6.63c3.03,0.32,6.92,0.07,9.13-1.84
			c5.77-5.01,11.94-6.94,19.12-7.05C951.65,468.38,962.37,467.43,973.47,466.79z"/>
		<path class="st2" d="M554.44,363.69c8.62-0.49,15.02-0.86,21.41-1.23c0.09,0.79,0.18,1.57,0.27,2.36
			c-5.37,0.75-10.75,1.5-17.06,2.38c0.45,7.89,1.25,15.67,1.18,23.43c-0.03,3.26-1.78,6.51-2.98,9.66
			c-0.43,1.13-1.39,2.13-2.31,2.84c-15.05,11.47-18.46,27.37-15.54,47.4c2.57,17.59,2.43,35.63,3.88,53.43
			c0.48,5.9-1.01,7.93-6.18,7.94c-7.81,0-15.63,0.64-23.42,1.28c-5.52,0.45-11.04-0.1-15.52,5.71c-3.12,4.05-8.55,2.51-10.54-2.21
			c-1.35-3.17-0.91-9.02,0.91-11.79c2.73-4.14,8.43-4.1,10.78,0.35c3.26,6.17,7.23,5.01,11.75,4.65c7.57-0.61,15.15-1.29,22.73-1.3
			c5.24-0.01,6.6-2.23,6.17-8.04c-1.78-24.1-3.09-48.24-4.85-72.35c-0.38-5.21,0.54-9.23,4.14-12.37
			C554.15,402.91,562.64,387.09,554.44,363.69z"/>
		<path class="st2" d="M309.33,853.26c8.1,9.1,15.45,17.96,23.45,25.97c2.11,2.11,6.3,2.46,9.4,2.15c26.32-2.68,52.6-5.71,78.9-8.6
			c2.47-0.27,4.96-0.3,8.41-0.5c0.78,13.67,0.32,26.96,2.59,39.67c2.81,15.78-3.9,26.57-10.98,37.78c-0.31,0.5-1.17,0.54-3.28-0.31
			c2.21-4.1,4.13-8.46,6.7-12.23c4.17-6.12,5.41-12.51,4.55-20.42c-1.44-13.25-1.71-26.65-2.41-38.78c-14.86,0.85-29,1.36-43.1,2.55
			c-15.12,1.28-30.18,3.4-45.3,4.68c-2.54,0.21-5.87-1.24-7.81-3.23c-7.05-7.26-13.59-15.18-20.5-22.63
			c-2.12-2.28-4.65-4.28-7.28-5.69c-5.43-2.9-7.96-7.92-5.67-13.07c2.16-4.86,5.82-6.54,10.4-4.37c4.77,2.26,6.03,7.61,3.45,13.9
			C310.48,851.04,309.99,851.91,309.33,853.26z"/>
		<path class="st2" d="M415.75,462.98c-1.88,0.32-3.75,0.8-5.64,0.93c-19.3,1.28-38.59,2.73-57.91,3.51
			c-3.4,0.14-8.21-1.45-10.18-4.23c-11.7-16.59-25.95-23.06-44.18-18.5c-5.74,1.43-11.89,0.85-18.64,1.24
			c-0.34-3.23-0.73-5.99-0.9-8.76c-0.74-12.08-1.19-24.19-2.27-36.23c-0.25-2.79-2.08-6.02-4.02-7.94
			c-4.16-4.1-5.82-8.47-2.46-13.65c2.86-4.4,7.01-4.82,11.07-1.95c4.23,2.98,4.54,8.71,1.57,13.85c-1.38,2.38-2.76,5.42-2.68,8.13
			c0.36,12.09,1.4,24.16,1.86,36.25c0.19,5.15,1.85,6.82,6.36,6.42c10.32-0.92,20.67-1.71,31.03-1.75c3.26-0.01,7.87,1.39,9.63,4.05
			c11.81,17.83,26.89,22.37,45.43,18.76c11.48-2.23,23.39-1.77,35.11-2.51c2.19-0.14,4.39-0.25,6.58-0.38
			C415.59,461.14,415.67,462.06,415.75,462.98z"/>
		<path class="st2" d="M415.61,922.99c-3.93-9.22-6.61-16.21-9.95-22.78c-0.79-1.55-3.92-2.59-5.75-2.29
			c-22.94,3.77-45.85,7.75-68.73,11.99c-1.78,0.33-3.5,2.73-4.73,4.61c-3.24,4.95-7.17,6.69-11.84,2.97
			c-4-3.19-4.59-7.84-2.16-12.52c2.49-4.78,7.36-4.79,12.1-1.91c3.05,1.86,7.15,2.88,10.52,2.35c22.05-3.49,44.05-7.35,66-11.5
			c4.33-0.82,6.24,0.67,7.91,4.93c3.1,7.93,6.61,15.66,10.31,24.32c-3.27,1.48-6.1,2.95-9.04,4.06c-4.74,1.78-9.23,2.81-9.17,10.83
			c0.04,4.97-4.54,6.93-8.91,5.97c-4.93-1.08-6.94-5.12-6.31-10.5c0.61-5.25,3.82-7.04,8.27-7.46
			C400.92,925.42,407.63,924.17,415.61,922.99z"/>
		<path class="st2" d="M728.03,197.19c6.16-0.35,12.34-0.71,18.52-1.06c4.91-0.28,9.6,0.17,12.92-6.03
			c2.25-4.21,7.04-3.48,10.41-0.07c3.67,3.71,4,8.34,0.99,12.64c-2.82,4.03-7.59,5.42-10.27,1.66c-4.82-6.76-10.46-4.89-16.17-4.66
			c-4.33,0.17-8.65,0.48-14.08,0.79c0.47,8.22,0.82,15.44,1.37,22.65c0.08,1.07,0.98,2.49,1.84,3c3.89,2.32,15.12-1.5,18.02-5.83
			c2.93-4.39,6.85-5.42,10.95-2.58c3.8,2.63,5.12,6.88,3.1,11.62c-2.11,4.95-6.53,7.73-10.13,4.32c-7.3-6.9-14.76-3.09-23.29-3.49
			c0.98,17.08,1.93,33.59,2.87,50.1c-0.76,0.05-1.52,0.09-2.28,0.14C731.24,253.13,729.68,225.88,728.03,197.19z"/>
		<path class="st2" d="M859.3,274.19c-1.11-19.38-2.23-37.96-3.21-56.56c-0.24-4.51-0.33-8.14-5.04-10.59
			c-4.67-2.42-5.31-7.99-2.36-12.8c2.71-4.42,6.83-5.48,10.88-2.26c4.25,3.37,4.63,7.88,2.37,13.19c-1.47,3.46-2.88,7.5-2.74,11.23
			c0.62,15.75,2.02,31.47,2.73,47.22c0.25,5.54,1.98,7.25,6.74,6.83c13.52-1.17,27.09-1.74,40.6-2.99c2.29-0.21,4.77-2.18,6.5-4.11
			c3.65-4.07,7.55-5.23,11.64-1.56c4.14,3.72,4.44,8.89,1.14,13.2c-3.35,4.37-8.24,4.7-11.46,0.13c-3.35-4.74-7.03-3.9-11.1-3.66
			C890.89,272.41,875.78,273.24,859.3,274.19z"/>
		<path class="st2" d="M432.94,340.32c2.08-0.28,4.16-0.65,6.25-0.82c11-0.86,22-1.78,33.02-2.44c3.83-0.23,5.77-1.37,5.66-6.44
			c-0.73-33.87-1.18-67.74-1.87-101.61c-0.05-2.49-1.02-5.12-2.05-7.41c-3.69-8.23-7.59-16.33-11.41-24.49
			c-2.32-4.95-3.78-10.29-10.53-10.39c-1.86-0.03-5.29-6.53-5.24-9.96c0.08-5.93,4.89-8.83,9.41-6.7c2.75,1.3,6.33,7.01,5.76,9.59
			c-1.26,5.68,0.22,9.81,2.69,13.89c11.89,19.64,16.1,41.06,15.31,64.75c-0.82,24.61,0.5,49.35,1.14,74.03
			c0.15,5.93-1.34,8.32-6.85,8.47c-11.49,0.3-22.95,1.44-34.42,2.23c-2.19,0.15-4.39,0.26-6.58,0.38
			C433.13,342.38,433.04,341.35,432.94,340.32z"/>
		<path class="st2" d="M770.62,867.82c-10.95-0.75-21.92-1.36-32.86-2.47c-1.24-0.12-3.19-2.95-3.31-4.64
			c-1.15-16-2.11-32.01-2.69-48.04c-0.07-1.8,2.28-4.68,4.02-5.34c4.53-1.72,9.35-2.48,14.91-3.84c0.55,4.56,0.9,8.86,1.61,13.09
			c1.12,6.69-0.44,14.03,5.35,19.69c1.31,1.28-0.08,8.96-2.23,11.19c-1.75,1.82-7.94,1.36-9.53-0.71
			c-1.93-2.52-2.62-10.42-1.23-11.43c7.49-5.51,4.76-13.02,4.18-20.25c-0.16-2.05-0.53-4.08-0.91-6.94
			c-4.31,0.92-8.27,1.77-13.42,2.87c0.4,6.97,0.79,13.94,1.2,20.9c0.28,4.72,0.61,9.45,0.89,14.17
			c0.95,16.18,0.95,16.19,14.86,16.98c5.24,0.3,10.47,0.55,16.88,0.89c-1.6-27.89-3.16-55.07-4.72-82.25
			c0.68-0.03,1.36-0.06,2.04-0.09C767.31,810.06,768.94,838.52,770.62,867.82z"/>
		<path class="st2" d="M333.16,391.24c0.49,8.56,0.94,15.87,1.32,23.18c0.23,4.46,0.14,8.26,5.34,10.24
			c4.5,1.71,5.3,7.27,3.26,12.06c-2.14,5.04-6.73,6.67-10.39,3.6c-2.48-2.08-5.14-8.82-4.05-10.77c6.12-10.91,0.76-21.96,1.84-33.76
			c-3.35-0.06-6.01-0.28-8.65-0.12c-23.88,1.46-47.77,2.85-71.63,4.67c-2.66,0.2-5.5,2.54-7.6,4.71c-3.82,3.96-7.61,4.7-11.74,1.09
			c-3.65-3.19-3.98-9.75-0.68-13.29c3.76-4.04,7.54-3.47,11.79-0.04c2.5,2.02,5.95,3.79,8.87,3.63c24.35-1.29,48.67-3.05,73-4.67
			C326.56,391.6,329.29,391.47,333.16,391.24z"/>
		<path class="st2" d="M502.56,295.6c9.83-0.56,18.49-1.06,27.88-1.6c1.39,24.23,2.76,48.09,4.13,71.96
			c-0.71,0.08-1.42,0.15-2.13,0.23c-1.3-22.62-2.59-45.25-3.92-68.41c-8.11,0.47-14.66,0.84-22.28,1.28
			c1.63,28.45,3.26,56.87,4.95,86.25c5.71-0.75,12.21,2.77,17.37-5.21c1.36-2.1,7.92-2.36,10.09-0.45
			c2.09,1.84,3.19,8.73,1.79,11.23c-1.45,2.59-8.48,4.69-9.52,3.37c-5.97-7.57-13.06-4.69-19.88-4.78c-0.9-0.01-1.8-0.2-3.1-0.35
			C506.15,358.15,504.39,327.36,502.56,295.6z"/>
		<path class="st2" d="M849.11,332.19c-0.68-11.92-1.33-23.12-2.04-35.59c26.09-1.5,52.05-2.98,78.02-4.47
			c0.06,0.86,0.12,1.71,0.19,2.57c-24.79,1.42-49.59,2.84-74.84,4.29c0.62,10.73,1.13,19.75,1.7,29.73
			c13.79-0.79,27.48-1.54,41.17-2.38c4.81-0.3,9.61-0.86,14.42-1.26c7.81-0.64,10.58-4.64,9.44-13.45
			c-0.76-5.86,1.3-9.86,6.54-10.82c4.86-0.9,8.3,1.89,9.2,7.24c0.97,5.73-1.52,9.49-6.63,10.81c-2.11,0.55-5.32,0.69-6.05,2.25
			c-3.9,8.39-10.74,7.64-17.34,8.01C885.25,330.1,867.6,331.13,849.11,332.19z"/>
		<path class="st2" d="M729.91,454.92c0.5,8.78,1.32,17.56,1.41,26.34c0.06,6.4,1.57,10.62,7.77,11.12
			c7.59,0.61,9.88,5.29,10.24,13.87c1.09,26.24,3.09,52.44,4.73,78.65c0.17,2.76,0.32,5.51,0.48,8.27c-0.55,0.21-1.1,0.42-1.66,0.63
			c-3.9-6.02-7.87-11.99-11.68-18.08c-2.31-3.68-4.32-6.78-9.16-6.88c-4.82-0.1-7.22-4.6-6.63-10.03c0.55-5.04,3.42-7.92,8.05-7.69
			c4.92,0.25,8.9,3.95,7.69,8.9c-2.55,10.42,4.59,14.78,7.83,21.59c0.57-0.11,1.15-0.22,1.72-0.34c-0.49-8.48-0.92-16.96-1.47-25.44
			c-1.09-16.77-2.47-33.52-3.27-50.31c-0.27-5.77-2.06-9.04-7.04-9.42c-8.49-0.64-11.04-5.99-10.73-15.08
			c0.22-6.49-1-13.06-1.45-19.61c-0.15-2.17,0.14-4.36,0.23-6.55C727.95,454.88,728.93,454.9,729.91,454.92z"/>
		<path class="st2" d="M622.07,770.69c-11.96,0.69-22.72,1.3-33.48,1.92c-0.02-0.67-0.05-1.34-0.07-2.01
			c11.87-0.68,23.73-1.36,36.66-2.1c0.72,12.48,1.74,25.26,2.06,38.05c0.16,6.4,2.25,10.61,6.61,14.58
			c22.11,20.15,44.03,40.58,65.91,61.07c2.42,2.27,4.79,5.19,6.07,8.38c5.78,14.4,11.19,28.99,16.66,43.55
			c0.7,1.87,1.01,3.93,1.49,5.91c-0.68,0.3-1.35,0.6-2.03,0.89c-1.23-2.91-2.86-5.69-3.64-8.74c-8.17-31.67-25.02-55.45-49-73.94
			c-14.16-10.91-26.91-24.29-39.96-37c-2.46-2.4-4.43-6.79-4.79-10.46C623.32,798,622.9,785.14,622.07,770.69z"/>
		<path class="st2" d="M734.89,540.16c-11.42,0.66-21.71,1.25-33.76,1.94c12.93,19.59,25.07,37.98,37.21,56.37
			c-0.85,0.7-1.71,1.39-2.56,2.09c-13.25-19.98-26.5-39.96-40.63-61.27c12.76-0.73,24.08-1.38,36.36-2.09
			c-0.39-6.78-0.45-12.77-1.23-18.64c-0.25-1.86-2.15-4.31-3.76-4.98c-15.85-6.63-24.43-18.26-21.95-38.41
			c0.2-1.65-1.92-4.32-3.52-5.58c-5.05-3.98-6.61-9.19-3.42-13.92c2.93-4.34,6.83-5.15,10.99-2.25c4.33,3.02,3.98,8.46,1.42,14.51
			c-1.79,4.22-1.27,9.74-1.79,14.68c-1.19,11.34,2.74,19.12,12.46,22.72c10.9,4.05,14.88,12.74,13.7,25.24
			C734.14,533.35,734.66,536.24,734.89,540.16z"/>
		<path class="st2" d="M613.33,473.83c-2.14-0.67-4.68-0.6-5.44-1.88c-2-3.37-4.62-7.45-4.43-11.02c0.26-4.97,4.46-6.96,8.85-6.14
			c4.64,0.86,7.49,4.81,6.31,9.57c-4.53,18.24,0.2,36.38,0.57,54.53c0.16,7.98-0.21,15.02-5.04,21.05c-1.07,1.33-1.59,3.25-2.7,4.51
			c-10.54,11.84-9.96,26.61-7.78,41.67c0.37,2.54,1.99,5.04,3.47,7.17c3.39,4.89,3.95,9.69-0.2,13.94
			c-3.65,3.74-7.89,3.18-11.05-0.91c-3.69-4.79-2.64-9.39,1.16-13.86c1.71-2.01,3.49-5.66,3.05-8.09
			c-3.24-17.82,0.75-33,11.09-46.21c4.56-5.83,5.52-12.51,4.81-20.31C614.67,503.22,614.17,488.52,613.33,473.83z"/>
		<path class="st2" d="M662.13,322.9c0.66,11.5,1.24,21.62,1.87,32.63c3.25,0,6.13,0.13,9-0.02c10.34-0.55,20.69-1.07,31.01-1.85
			c4.15-0.31,8.23,0.15,11.04-5.56c2.26-4.59,7.3-4.2,10.89-0.46c3.59,3.74,3.86,8.59,0.77,12.7c-3.35,4.47-8.22,5.09-11.4,0.49
			c-3.12-4.52-6.31-4.09-10.25-3.82c-14.4,0.97-28.82,1.71-43.77,2.57c-0.82-14.24-1.59-27.77-2.44-42.5
			c5.52,3.03,10.76,5.56,15.7,8.73c3.75,2.4,6.49,2.84,10.38-0.26c3.79-3.02,8.16-1.1,10.55,3.79c2.42,4.96,1.19,9.48-2.94,12.14
			c-4.09,2.64-8.78,1.9-10.74-3.17C677.95,328.26,669.24,328.2,662.13,322.9z"/>
		<path class="st2" d="M724.9,169.04c-0.46-8.04-0.92-16.06-1.42-24.83c-13.73,0.79-26.76,1.4-39.75,2.45
			c-1.59,0.13-3.25,2.32-4.46,3.96c-3.6,4.87-7.8,5.66-12.04,1.6c-3.73-3.57-3.85-8.34-1-12.7c2.79-4.26,8.15-3.87,12.33-0.36
			c2.26,1.9,5.45,3.39,8.17,3.32c12.84-0.35,25.66-1.3,39.52-2.09c0.38,6.54,1.04,12.48,0.97,18.4c-0.07,6.09,2.21,7.93,7.18,7.09
			c2.94-0.5,5.97-0.45,8.96-0.56c4.57-0.16,8.85,0.33,10.43-6.98c0.49-2.24,6.66-4.62,9.53-3.74c2.28,0.7,5.35,6.88,4.7,9.47
			c-0.81,3.2-6.05,8.03-7.73,7.27c-10.76-4.89-21.42-0.99-32.05-1.53C727.34,169.75,726.47,169.41,724.9,169.04z"/>
		<path class="st2" d="M469.7,166.61c3.9,3.77,7.51,8.06,11.76,11.21c13.22,9.82,17.63,23.21,17.98,41.08
			c0.64,32.51,3.54,65.01,5.77,97.5c0.22,3.23,1.89,6.69,3.65,9.4c3.09,4.78,3.54,9.14-0.08,13.39c-3.03,3.57-9.09,3.15-11.69-0.83
			c-3.1-4.75-3.06-9.91,1.33-13.02c3.73-2.64,3.72-5.81,3.46-9.88c-2.39-37.74-4.6-75.49-7.2-113.21c-0.24-3.45-2.11-7.49-4.33-9.96
			c-7.22-8.05-14.96-15.51-22.49-23.19C468.47,168.26,469.08,167.44,469.7,166.61z"/>
		<path class="st2" d="M569.62,813.91c-7.78,4.56-15.38,9.6-23.4,13.52c-5.53,2.7-7.27,6.23-6.59,13.1
			c1.35,13.58,1.59,27.29,2.84,40.89c0.32,3.49,2.05,7.51,4.25,10.02c7.53,8.6,15.21,17.14,23.52,24.72
			c5.89,5.37,7.92,11.65,8.23,19.68c0.27,7.06-0.57,14.38,4.96,20.47c1.35,1.48-0.1,9.28-2.26,11.06c-2.15,1.77-7.71,1-10.15-1.12
			c-3.66-3.18-3.37-8.62,0.12-12.46c2.38-2.62,5.76-3.87,4.76-9.11c-1.55-8.17,0.83-17.22-6.25-23.98
			c-8.53-8.14-16.37-17.21-24.67-25.67c-3.64-3.7-5.66-7.62-5.87-13.48c-0.55-15.22-1.62-30.44-2.85-45.63
			c-0.4-4.99,1-7.65,4.87-9.7c7.66-4.07,15.1-8.67,22.68-12.96c1.49-0.84,3.16-1.29,4.74-1.92
			C568.9,812.2,569.26,813.05,569.62,813.91z"/>
		<path class="st2" d="M630.78,228.11c-1.59-27.7-3.1-52.88-4.41-78.07c-0.24-4.52-1.88-6.02-5.63-5.6
			c-3.53,0.4-7.08,0.45-10.63,0.65c-0.06-0.86-0.13-1.73-0.19-2.59c5.95-0.34,11.89-0.68,18.65-1.07c1.82,31.67,3.65,63.7,5.6,97.65
			c-7.81-11.29-15.6-20.78-21.37-31.65c-2.69-5.07-1.12-12.88-2.17-19.31c-0.45-2.76-2.18-5.87-4.15-7.62
			c-4.33-3.86-5.99-9.15-3.08-13.61c2.85-4.36,6.72-5.35,10.96-2.54c4.2,2.79,5,8.94,2.03,13.78c-2.98,4.86-3.41,24.01-0.21,29.02
			C620.38,213.71,625.03,219.92,630.78,228.11z"/>
		<path class="st2" d="M648.13,447.89c1.04,18.05,1.86,34.03,2.99,49.98c0.14,1.94,1.76,3.97,3.05,5.58
			c3.77,4.68,4.17,9.37,0.32,13.91c-3.14,3.7-9.06,3.28-11.63-0.94c-3.08-5.06-2.46-9.61,1.74-13.85c1.67-1.69,3.1-4.96,3-7.45
			c-0.59-14.43-1.56-28.85-2.65-43.25c-0.36-4.75,1.02-6.52,5.18-6.76c35.81-2.06,71.6-4.3,107.4-6.43
			c1.46-0.09,2.95,0.38,4.43,0.59c0.02,0.7,0.03,1.39,0.05,2.09C724.31,443.53,686.62,445.69,648.13,447.89z"/>
		<path class="st2" d="M468.91,376.31c-8.68,0.5-17.53,1.01-27.43,1.57c-0.55-9.52-1.1-18.85-1.61-28.19
			c-0.24-4.46-0.24-8.32-5.16-10.62c-4.43-2.07-5.1-7.45-2.81-12.18c2.4-4.98,6.65-5.55,10.76-3.19c4.45,2.56,6,8.12,3.16,11.98
			c-4.04,5.49-2.99,11.09-2.71,16.96c0.34,7.03,0.79,14.06,1.22,21.59c7.56-0.43,14.34-0.82,22.14-1.27
			c-0.59-10.32-1.05-20.71-1.94-31.05c-0.12-1.38-2.28-2.73-3.67-3.81c-4.5-3.48-5.93-9.13-3-13.52c2.94-4.4,6.88-4.99,11.01-2.2
			c4.12,2.79,4.48,8.61,1.78,13.86c-1.37,2.67-2.42,6.04-2.38,9.1c0.13,9.71,0.84,19.43,1.29,29.14
			C469.57,374.94,469.24,375.41,468.91,376.31z"/>
		<path class="st2" d="M414.77,427.39c-21.25,2.04-42.5,4.02-63.74,6.25c-1.81,0.19-3.67,1.74-5.16,3.13
			c-4.3,4-8.64,3.97-12.13-0.84c-3.03-4.18-2.53-8.97,1.07-12.67c3.54-3.63,9.23-2.85,11.82,2.39c2.12,4.29,4.69,4.08,8,3.77
			c19.22-1.85,38.46-3.59,57.69-5.35c1.8-0.17,3.62-0.22,4.16-0.25c2.85,5.86,5.25,10.65,7.52,15.51c2.24,4.8,1.95,9.31-2,12.57
			c-3.69,3.05-7.56,2.35-10.51-1.56c-3.17-4.19-2.87-8.56,0.33-12.74c1.89-2.47,3.46-5.25,5.18-7.89
			C416.26,428.95,415.52,428.17,414.77,427.39z"/>
		<path class="st2" d="M630.14,734.78c7.86-12.56,14.43-24.17,22.03-34.82c6.05-8.47,8.59-17.21,6.81-28.09
			c-0.97-5.91-0.8-12.04-1.15-18.07c1.05-0.08,2.1-0.15,3.15-0.23c0.28,4.92,0.08,9.94,0.94,14.73c2.58,14.46-0.74,26.43-9.23,37.31
			c-5.66,7.26-10.09,15.76-15.27,24.02c16.54,4.75,27.53-4.32,37.25-17.18c0.49,0.9,0.98,1.8,1.47,2.7
			c-3.39,4.12-6.78,8.24-10.82,13.16c5.55,0.62,9.67,1.95,12.78-4.57c2.36-4.95,7.27-5.38,11.36-1.62c3.8,3.48,4.35,8.23,1.43,12.59
			c-2.91,4.34-7.61,5.47-10.87,1.68c-3.96-4.61-8.1-4.01-12.61-3.75C655.57,733.32,643.71,734,630.14,734.78z"/>
		<path class="st2" d="M987.48,563.62c2.55-2.43,4.36-3.69,5.63-5.46c3.77-5.26,8.7-6.48,12.41-2.44c3.51,3.83,3.87,8.4,1.01,12.77
			c-3.1,4.75-8.13,4.39-12.66-0.12c-1.53-1.52-3.9-3.23-5.64-2.96c-5.22,0.83-7.83-1.68-10.21-6.76
			c-5.24-11.18-11.02-22.05-16.64-33c-3.75-7.3-9.5-7.98-13.89-1.57c-3.45,5.03-7.52,5.73-12.04,2.23
			c-3.54-2.74-4.05-9.95-0.89-13.35c3.95-4.26,8.01-3.77,12.28,0.32c1.83,1.75,4.74,3.32,6.94,3.02c5.22-0.72,7.87,1.64,10.27,6.73
			c5.48,11.64,11.4,23.02,17.4,34.32C982.64,559.63,985,561.11,987.48,563.62z"/>
		<path class="st2" d="M688.37,744.91c0.58,10.15,1.13,20.3,1.76,30.45c0.86,13.91-0.93,29.03,3.46,41.37
			c4.38,12.34,14.93,21.94,22.85,32.67c9.12,12.36,18.52,24.46,27.39,37.05c3.19,4.52,6.49,5.67,11.28,5.3
			c17.68-1.37,35.39-2.29,53.09-3.34c2.14-0.13,4.3,0.02,6.45,0.04c0.07,0.66,0.14,1.31,0.21,1.97c-1.53,0.42-3.04,1.12-4.59,1.22
			c-19.53,1.28-39.06,2.68-58.61,3.46c-2.85,0.11-6.68-2-8.61-4.52c-16.92-22.17-33.56-44.63-50.13-67.14
			c-1.68-2.28-3.23-5.42-3.43-8.27c-1.59-22.04-2.85-44.11-4.15-66.17c-0.08-1.36,0.39-2.75,0.61-4.12
			C686.74,744.88,687.55,744.9,688.37,744.91z"/>
		<path class="st2" d="M928,526.5c-1.04,0.37-1.48,0.45-1.85,0.67c-6.18,3.65-10.94,2.93-13-2.46c-2-5.23-1.16-9.93,3.66-12.55
			c4.75-2.58,8.79,0.18,11.62,7.23c1.04,2.59,2.44,5.06,3.98,7.33c11.33,16.72,22.63,33.46,34.21,49.96
			c1.98,2.83,5.05,4.97,7.97,6.57c4.73,2.61,6.84,6.53,5.32,12.05c-1.47,5.33-5.42,7.06-9.94,5.53c-5.27-1.79-7.04-7.22-4.87-11.88
			c2.35-5.03,0.46-7.6-1.83-10.94C951.56,560.97,939.9,543.89,928,526.5z"/>
		<path class="st2" d="M851.02,514.29c2.39-3.26,3.89-7.14,6.31-8.09c2.49-0.97,7.05-0.21,8.56,1.84c1.78,2.41,2.58,7.7,1.49,10.57
			c-4.59,12.19-3.46,31.95,3.33,42.83c3.63,5.82,7.21,11.68,10.93,17.43c2.92,4.52,5.04,9.51,11.28,10.28
			c4.52,0.56,7.22,6.05,4.83,10.88c-1.52,3.08-5.76,6.2-8.74,6.11c-5.03-0.16-8.18-5.46-6.32-10.72c1.97-5.59-0.05-8.78-2.57-12.56
			c-1.54-2.31-2.75-4.96-4.47-7.08c-10.44-12.85-15.58-27.74-14.41-45.22c0.26-3.95-0.77-6.71-4.5-8.53
			C854.62,520.98,853.35,517.58,851.02,514.29z"/>
		<path class="st2" d="M484.12,276.55c-1.27-22.14-2.48-43.29-3.7-64.45c0.36-0.35,0.73-0.69,1.09-1.04
			c9.29,12.89,18.57,25.78,27.86,38.67c-0.77,0.79-1.55,1.57-2.32,2.36c-7.13-9.76-14.26-19.52-22.22-30.41
			c-0.36,3.08-0.8,4.73-0.71,6.36c0.67,12.86,1.51,25.71,2.13,38.58c0.22,4.62,1.76,6.6,6.01,6.04c4.55-0.6,9.24-0.21,13.75-1.02
			c2.38-0.43,4.87-2.03,6.67-3.9c4.04-4.19,8.03-4.85,12.24-0.66c4.27,4.26,3.57,9.17-0.05,12.9c-3.91,4.02-8.12,3.38-12.27-1
			c-1.88-1.98-4.95-3.39-7.49-3.45C498.48,275.38,491.85,276.11,484.12,276.55z"/>
		<path class="st2" d="M215.42,380.5c0.81,14.14,1.62,28.28,2.48,43.27c26.81-1.54,52.6-3.02,77.36-4.44
			c3.82,9.86,7.79,18.4,10.27,27.45c0.88,3.18-0.94,9.52-3.23,10.94c-2.35,1.47-8.22-0.06-9.87-2.56c-1.6-2.42-0.17-7.87,0.71-11.74
			c0.34-1.47,2.88-2.25,4.96-3.74c-1.26-5.3-2.57-10.76-3.95-16.57c-26.17,1.5-51.81,2.97-78.11,4.48
			c-0.92-15.97-1.8-31.46-2.69-46.95C214.04,380.6,214.73,380.55,215.42,380.5z"/>
		<path class="st2" d="M887.28,244.78c11.59-0.66,23.17-1.48,34.78-1.83c1.75-0.05,3.71,1.91,5.36,3.27
			c9.96,8.21,19.64,16.9,29.86,24.64c5.91,4.48,8.68,9.98,9.83,17.78c2.33,15.76,5.42,31.39,8.4,48.21
			c20.34-1.17,40.24-2.31,60.14-3.45c0.03,0.7,0.06,1.39,0.09,2.09c-20.81,1.19-41.61,2.39-63.09,3.62
			c-2.86-16.3-5.95-32.71-8.56-49.22c-1.08-6.84-3.26-11.94-8.67-16c-10.05-7.56-19.43-16.29-29.37-24.04
			c-2.61-2.04-6.28-3.14-9.46-3.18c-7.58-0.1-15.16,0.73-22.74,1.1c-2.14,0.11-4.3-0.05-6.45-0.08
			C887.37,246.72,887.33,245.75,887.28,244.78z"/>
		<path class="st2" d="M541.04,259.76c10.53-0.6,19.83-1.14,28.65-1.64c9.15,30.55-3.14,55.74-12.77,81.56
			c-0.63-0.1-1.26-0.2-1.9-0.31c0.26-1.89,0.23-3.91,0.81-5.66c3.17-9.52,5.85-19.36,9.92-28.35c6.42-14.18,2.84-28.51,2.16-43.35
			c-7.67,0.44-14.64,0.84-22.6,1.3c3.36,8.33,2.39,17.67,11.03,22.3c1.86,0.99,3.04,8.79,1.64,11.36c-1.42,2.59-7.21,4.47-9.66,3.15
			c-2.41-1.3-5.15-9-4.09-10.47c5.11-7.16,1.36-13.24-0.49-19.74C542.89,266.95,542.15,263.95,541.04,259.76z"/>
		<path class="st2" d="M673.57,673.25c1.33,1.85,2.79,3.6,3.98,5.56c10.67,17.64,21.41,35.22,31.83,53.05
			c1.81,3.09,2.85,7.2,3.13,10.93c1.27,17.04,1.99,34.13,3.27,51.18c0.23,3,1.76,6.26,3.46,8.71c3.45,4.99,3.97,9.76-0.17,13.93
			c-3.55,3.57-7.85,3.32-11.09-0.87c-3.73-4.84-2.73-9.37,1.14-13.83c1.73-1.99,3.29-5.37,3.18-8.07
			c-0.63-16.82-1.59-33.63-2.85-50.41c-0.28-3.69-1.69-7.65-3.53-10.78c-10.05-17.16-20.41-34.08-30.61-51.12
			c-1.31-2.19-2.34-4.59-3.51-6.9C672.39,674.16,672.98,673.71,673.57,673.25z"/>
		<path class="st2" d="M497.05,483.64c-1.31-22.78-2.61-45.56-3.95-68.86c8.58-0.49,17.2-0.99,26.91-1.54
			c0.32,5.65,0.62,11.06,0.95,16.47c0.69,11.54,1.44,23.08,2.07,34.63c0.26,4.74,0.77,8.77,4.52,12.38
			c3.95,3.81,3.27,9.18-0.59,13.03c-3.4,3.39-7.4,3.16-10.54-0.61c-3.53-4.23-4.08-9.87,0.11-13.09c4.23-3.25,3.77-6.86,3.48-11.35
			c-1.02-15.68-1.84-31.37-2.78-47.64c-7.41,0.42-13.95,0.8-21.47,1.23c1.24,21.68,2.49,43.48,3.74,65.29
			C498.68,483.6,497.87,483.62,497.05,483.64z"/>
		<path class="st2" d="M791.24,870.62c17.94-1.03,35.47-2.03,53.01-3.04c0.05,0.74,0.1,1.48,0.14,2.22
			c-18.56,1.06-37.12,2.13-56.25,3.23c-1.64-28.55-3.3-57.53-5.06-88.3c9.54,7.54,18.2,14.37,26.83,21.25
			c0.53,0.42,1.16,1.2,1.2,1.85c0.74,11.81,1.4,23.62,2.08,35.43c-0.96,0.06-1.92,0.11-2.88,0.17c-0.36-6.36-1.28-12.76-0.97-19.06
			c0.55-11.11-2.69-19.13-11.9-23.99c-3.49-1.84-6.52-4.89-10.69-8.1C788.26,818.71,789.71,843.93,791.24,870.62z"/>
		<path class="st2" d="M638.76,883.47c-0.47-8.22-0.91-15.95-1.42-24.77c-6.8,0.39-12.79,0.73-18.78,1.08
			c-0.04-0.72-0.09-1.44-0.13-2.16c6.94-0.4,13.88-0.8,21.7-1.24c0.42,7.3,0.86,15.01,1.36,23.76c7.18-0.41,13.55-0.5,19.84-1.33
			c1.57-0.21,2.94-2.75,4.27-4.36c3.52-4.25,7.64-5.09,11.63-1.37c4.06,3.78,4.31,8.85,0.81,13.15c-3.49,4.3-7.54,3.86-11.68,0.24
			c-2.23-1.94-4.95-3.15-9.11-5.71c1.51,26.36,2.87,50.06,4.23,73.75c-0.9,0.08-1.8,0.16-2.7,0.25
			c-2.49-23.42-2.67-47.11-4.75-71.27C648.96,883.47,644.27,883.47,638.76,883.47z"/>
		<path class="st2" d="M567.03,860.07c8.11,4.35,16.21,8.7,25.11,13.48c-0.98-17.11-1.92-33.4-2.96-51.59
			c-8.77,9.79-22.24,11.19-27.05,25.8c-1.76,5.34-6.66,6.8-10.3,4.22c-2.55-1.8-4.7-7.28-4.41-10.79c0.44-5.37,5.37-8.37,9.35-5.82
			c5.45,3.48,8.51,0.28,12.23-2.5c7.41-5.52,14.82-11.02,23.02-17.12c1.25,21.72,2.42,42.22,3.67,64.07
			c-10.41-5.86-20.1-11.31-29.8-16.76C566.28,862.06,566.65,861.07,567.03,860.07z"/>
		<path class="st2" d="M989.45,299.83c-3.14-3.21-6.82-5.25-7.55-8.19c-0.74-3.02,0.49-7.93,2.45-10.24
			c5.68-6.67,4.82-18.64-2.41-23.22c-4.05-2.56-7.99-5.51-12.28-7.35c-2.62-1.12-5.93-1.1-8.72-0.47
			c-5.19,1.17-9.96,0.45-10.85-5.97c-0.47-3.36,1.74-8.59,4.24-10.66c3.89-3.24,8.63,0.23,11.01,5.73c1.28,2.96,3.54,5.57,5.8,7.75
			c1.9,1.84,4.32,3.2,6.7,4.12c9.77,3.78,14.47,10.92,13.45,22.99c-0.2,2.4,2.57,5.02,3.37,7.76c0.95,3.27,2.24,7.08,1.55,10.07
			C995.6,294.78,992.46,296.6,989.45,299.83z"/>
		<path class="st2" d="M912.82,501.28c2.15-0.12,4.3-0.24,6.45-0.37c20.9-1.29,41.83-2.33,62.7-4.05c5.51-0.45,8.45,1.49,10.81,6.95
			c3.07,7.09,6.75,13.86,10.21,20.74c2.44,4.86,3.92,10.2,10.92,9.36c4.19-0.51,7.29,4.69,6,9.47c-0.86,3.19-4.09,6.65-6.94,7.71
			c-4.29,1.61-8.72-1.87-8.31-6.73c1.12-13.28-7.86-21.37-11.48-32.11c-3.28-9.74-8.54-12.66-17.99-11.5
			c-18.71,2.3-37.65,2.54-56.49,3.58c-1.91,0.11-3.85-0.13-5.77-0.21C912.89,503.17,912.85,502.22,912.82,501.28z"/>
		<path class="st2" d="M546.31,180.05c0.37,1.31,0.99,2.6,1.08,3.93c1.21,17.03,2.22,34.08,3.57,51.09c0.41,5.2-1.15,6.97-5.6,7.08
			c-9.16,0.24-18.3,0.96-27.45,1.49c0.36-0.65,0.71-1.31,1.07-1.96c-2.57-3.34-4.97-6.88-7.76-9.98c-3.55-3.95-4.37-8.22-1.47-12.63
			c2.88-4.37,6.95-5.08,10.97-1.92c4.07,3.21,4.52,7.71,2.28,12.52c-1.24,2.67-2.61,5.27-5,10.06c10.47-0.6,18.67-0.81,26.77-1.83
			c1.11-0.14,2.63-4.34,2.53-6.59c-0.67-14.43-1.77-28.84-2.65-43.26c-0.16-2.63,0.02-5.28,0.05-7.91
			C545.23,180.11,545.77,180.08,546.31,180.05z"/>
		<path class="st2" d="M671,519.74c-1.1-19.21-2.15-37.5-3.23-56.36c5.43-0.31,10.55-0.6,15.66-0.9c0.12,0.71,0.23,1.42,0.35,2.13
			c-3.88,0.64-7.75,1.28-12.34,2.03c0.93,16.21,1.86,32.52,2.83,49.36c6.36-0.36,12.43-0.71,19.46-1.12
			c-3.23-6.64-2.83-15.16-12.1-16.25c-1.95-0.23-5.11-6.57-4.72-9.53c0.4-2.98,4.43-7.17,7.04-7.28c2.59-0.11,8,5.1,7.67,6.42
			c-2.88,11.43,4.33,19.84,6.83,29.91C689.24,518.7,680.61,519.19,671,519.74z"/>
		<path class="st2" d="M578.86,644.73c-12.47,0.72-23.54,1.35-34.61,1.99c-0.06-0.76-0.11-1.51-0.17-2.27
			c12.09-0.69,24.17-1.39,37.88-2.17c0.75,13.07,1.84,26.57,2.19,40.07c0.25,9.73,2.43,18.33,6.96,26.75
			c7.13,13.26,13.47,27.07,20.1,40.67c1.04,2.13,1.85,4.39,2.77,6.59c-0.59,0.41-1.18,0.82-1.77,1.22
			c-1.06-1.65-2.27-3.21-3.15-4.97c-8.44-16.98-16.93-33.94-25.11-51.07c-1.48-3.09-2.09-6.94-2.34-10.49
			C580.55,676.17,579.81,661.27,578.86,644.73z"/>
		<path class="st2" d="M672.96,896.43c7.54-0.43,14.37-0.96,21.2-1.09c1.23-0.02,3.35,1.4,3.62,2.56
			c3.22,14.21,6.17,28.49,9.17,42.77c0.03,0.16-0.25,0.4-1.59,2.38c-3.71-15.29-7.12-29.33-10.52-43.36
			c-6.18,0.35-12,0.69-18.52,1.06c0.82,14.26,1.47,27.86,2.53,41.43c0.15,1.86,2.33,3.56,3.58,5.32c3.26,4.6,3.58,9.45-0.27,13.33
			c-3.78,3.81-8.31,3.49-11.59-1.16c-3.25-4.61-2.86-10.02,1.51-12.98c3.57-2.42,3.53-5.21,3.29-8.94
			C674.52,924.44,673.8,911.11,672.96,896.43z"/>
		<path class="st2" d="M971.32,358.64c2.35-3.53,3.71-7.52,6.1-8.59c2.41-1.08,7.02-0.47,8.6,1.53c3.18,4.01,6.39,4.21,10.41,3.86
			c7.1-0.63,14.23-1,21.36-1.26c5.06-0.19,9.69,0.26,11.69-7.37c1.21-4.61,6.38-6.25,9.79-2.93c2.44,2.38,4.72,8.02,3.86,10.93
			c-0.83,2.81-6.98,6.51-8.68,5.43c-7.44-4.75-14.83-2.14-22.21-2.14c-5.06,0-10.11,0.6-15.16,0.79c-4.14,0.16-7.75,0.33-10.5,5.24
			c-1.16,2.07-5.9,2.79-8.58,2.02C975.69,365.48,974.01,361.83,971.32,358.64z"/>
		<path class="st2" d="M607.55,958.06c-0.24-4.2-0.47-8.41-0.73-12.61c-0.17-2.89-0.8-5.83-0.5-8.65
			c1.84-17.6-4.26-29.29-19.09-35.69c-5.54-2.39-10.45-6.76-15.6-10.34c-4.29-2.98-8.11-5.91-13.85-3.65
			c-4.51,1.78-8-2.05-8.72-7.53c-0.66-5.05,1.41-8.8,5.89-9.93c4.69-1.18,8.93,0.88,9.49,6.39c0.58,5.74,3.53,7.92,7.17,10.33
			c10.61,7.04,21.19,14.17,31.67,21.47c1.83,1.27,4.37,3.39,4.52,5.3c1.2,14.86,1.9,29.76,2.75,44.65
			C609.54,957.9,608.54,957.98,607.55,958.06z"/>
		<path class="st2" d="M609.03,862.56c0.43,7.58,1.19,15.17,1.2,22.74c0.01,5.87,1.56,8.66,7.02,10.08
			c16.12,4.21,16.05,4.54,17.16,23.59c0.37,6.29,0.79,12.58,1.06,18.88c0.22,4.97,0.49,9.36,4.42,13.27
			c3.59,3.56,2.95,8.95-0.7,12.47c-3.53,3.4-7.88,3.51-11.14-0.68c-3.38-4.36-3.57-9.99,0.74-13.06c3.96-2.82,4.11-5.98,3.77-10.31
			c-0.82-10.47-1.14-20.99-2.33-31.4c-0.28-2.47-2.8-5.68-4.93-6.68c-5.46-2.55-13.34-2.16-16.4-6.48
			c-3.14-4.42-1.74-13.03-2.25-19.81c-0.31-4.15-0.49-8.31-0.73-12.46C606.96,862.65,608,862.6,609.03,862.56z"/>
		<path class="st2" d="M604.34,790.6c0.92,16.01,1.84,32.13,2.77,48.32c5.23,1.09,8.55,1.25,10.9-4.45
			c2.03-4.93,6.62-5.49,10.72-2.71c4.25,2.88,5.06,7.66,2.85,12.32c-2.3,4.85-6.24,5.5-10.69,3.45c-4.78-2.2-9.62-4.24-16.46-7.23
			c-0.33-5.7-0.8-14.21-1.31-22.72c-0.36-6.03-0.74-12.05-1.15-18.07c-0.3-4.44-2.07-6.37-6.29-5.92
			c-7.32,0.78-14.71,0.94-22.07,1.36c-0.05-0.86-0.09-1.72-0.14-2.59C583.41,791.8,593.35,791.23,604.34,790.6z"/>
		<path class="st2" d="M183.02,810.24c13.81-0.79,27.62-1.58,41.71-2.39c-4.18-13.52-8-16.08-18.16-12.61
			c-1.33,0.45-2.36,2.59-3.19,4.18c-2.81,5.35-6.7,7.25-11.57,3.95c-4.24-2.87-4.93-7.55-2.83-12.35c2.15-4.94,7.23-5.54,11.93-2.78
			c3.01,1.77,6.86,3.49,9.94,2.88c7.61-1.48,12.2,1.65,15.23,9.4c1.2,3.07,2.96,5.86,4.96,9.73c-16.48,0.95-32.15,1.84-47.83,2.74
			C183.15,812.08,183.08,811.16,183.02,810.24z"/>
		<path class="st2" d="M577.7,437.38c-3.34,4.04-7.02,7.8-9.9,12.24c-1.71,2.64-3.04,6.36-3.02,9.6c0.07,9.42,0.9,18.85,1.44,28.27
			c0.3,5.15,0.28,9.92,4.58,14.01c3.58,3.41,2.89,8.79-0.69,12.45c-3.63,3.71-7.73,3.31-11.03-0.74c-3.31-4.06-3.64-9.73,0.21-12.44
			c4.97-3.49,4.16-7.91,3.88-12.76c-0.5-8.64-1.05-17.27-1.56-25.91C560.99,451.27,566.99,440.87,577.7,437.38z"/>
		<path class="st2" d="M207.73,833.72c37.47-2.15,74.94-4.3,112.41-6.45c0.04,0.62,0.08,1.23,0.13,1.85
			c-37.49,2.15-74.99,4.3-112.48,6.45C207.77,834.96,207.75,834.34,207.73,833.72z"/>
		<path class="st2" d="M991.68,308.16c5.93-0.66,11.87-1.22,17.78-2c7.05-0.93,14.43,0.99,20.75-5.33c3.12-3.12,8.41-1.02,9.75,3.66
			c0.98,3.42,0.16,9.04-1.87,11.62c-3.02,3.83-8.56,3.37-10.66-1.43c-2.85-6.5-6.91-5.69-11.44-5.29
			c-5.94,0.54-11.87,1.14-17.81,1.55c-2.1,0.15-4.24-0.16-6.36-0.26C991.77,309.85,991.73,309.01,991.68,308.16z"/>
	</g>
</g>
<g id="Camada_3">
	<g>
		<path class="st3" d="M346.2,688.62L332.5,728l9.1,40.99L377.5,799l72.93,34.9l43.73,30.97L537.5,978l47.28-77.84l156.74,73.42
			L852.5,1025l61.25,12l46.55-40.81l63.84-136.29L1105.5,687l8-57l-36.22-36.2c-1.82-2.49-4.25-4.49-7.05-5.79L894.5,506
			l-208.78-97.7l-43.7,118.04L517.2,648.82l-102.77,36.97L346.2,688.62z"/>
		<path class="st4" d="M252.6,670.47L211.5,785l-36.78-95.29L139.5,613c-12.41-11.1-25.59-17.9-38-29
			c-17.52-15.67-32.03-38.16-49.56-53.83C41.38,508,30.82,485.83,20.26,463.66L-0.5,377.97L16.23,272.5l25.86-72.97l43.2-74.45
			c17.9-14.56,31.32-35.52,49.21-50.08c18.01-14.65,40.49-22.89,58.5-37.54c20.58-5.87,38.92-18.58,59.5-24.46
			c23.17-6.61,48.58-6.39,71.75-13c38.27,2.43,76.54,4.86,114.82,7.29l113.82,60.68l70.8,69.11l60.65,125.89l5.31,135.65
			l-34.34,94.04l-40.09,68.18l-64.51,63.1l-70.39,41.49l-93.94,20.66l-73.19-1.32L252.6,670.47z"/>
		<path class="st5" d="M336.25,757.48c42.19-0.1,125.66,1.58,205.52-37.52c152.95-74.89,206.06-249.46,214.77-281.67l-75.26-25.72
			l-29.2,92.3L568.6,608.28c-20.91,11.33-40.19,26.39-61.1,37.72c-19.48,10.55-40.59,17.36-60.06,27.91
			c-33.74,4.9-67.49,9.8-101.23,14.7L336.25,757.48z"/>
		<circle class="st6" cx="342.06" cy="354.04" r="246.65"/>
		<path class="st7" d="M1107.56,681.82L960.3,996.19c-16.1,34.38-57.03,49.2-91.41,33.09L596.75,901.81
			c-23.51-11.01-53.61,73.64-53.61,73.64c-12.24,26.12-39.63-117.86-61.33-127.48c-67.15-29.73-71.58-33.53-110.16-51.6
			c-4.15-1.95-26.01-12.69-35.48-38.85c-5.99-16.53-5.67-35.37,2.39-52.56l7.65-16.33c137.3,3.41,260.53-86.94,312.93-198.8
			c12.51-26.7,21.3-54.05,26.59-81.52l388.75,182.1C1108.85,606.51,1123.66,647.44,1107.56,681.82z"/>
		<path class="st7" d="M659.13,489.82c-52.4,111.86-175.63,202.2-312.93,198.8c-22.61-0.56-45.61-3.69-68.75-9.65
			c-45.47-11.74-23.84-23.91-61.85,104.82c-7.09,24.04-59.71-156.79-79.22-170.9C-1.67,513.18-30.36,350.01,40.61,198.5
			C122.05,24.64,316.8-48.03,490.66,33.41c147.15,68.93,224.23,223.6,195.06,374.89C680.44,435.77,671.64,463.12,659.13,489.82z"/>
		<path class="st7" d="M545.92,983.12"/>
		<g>
			<g>
				<path d="M607.93,647.03c16.73,41.66,33.47,83.32,50.2,124.98c2.38,5.94,4.77,11.87,7.15,17.81
					c2.84,7.08,10.12,13.45,18.45,10.48c31.57-11.28,63.14-22.56,94.71-33.84c49.97-17.85,99.94-35.71,149.91-53.56
					c11.56-4.13,23.11-8.26,34.67-12.39c7.63-2.72,12.74-10.22,10.48-18.45c-2.03-7.38-10.79-13.22-18.45-10.48
					c-31.57,11.28-63.14,22.56-94.71,33.84c-49.97,17.85-99.94,35.71-149.91,53.56c-11.56,4.13-23.11,8.26-34.67,12.39
					c6.15,3.49,12.3,6.98,18.45,10.48c-16.73-41.66-33.47-83.32-50.2-124.98c-2.38-5.94-4.77-11.87-7.15-17.81
					c-3.02-7.51-10.01-12.8-18.45-10.48C611.28,630.54,604.9,639.47,607.93,647.03L607.93,647.03z"/>
			</g>
		</g>
		<g>
			<g>
				<path d="M295.15,254.42c0.53-1.43,1.07-2.87,1.66-4.28c-0.25,0.61-1,2.16,0.26-0.53c1.02-2.19,2.05-4.36,3.18-6.5
					c2.14-4.04,4.54-7.95,7.2-11.67c0.51-0.72,1.03-1.43,1.56-2.13c-1.76,2.31,0.01,0.03,0.48-0.52c1.26-1.44,2.49-2.89,3.8-4.28
					c2.83-2.99,5.87-5.73,9.05-8.33c-2.73,2.23,2.09-1.46,2.75-1.9c1.63-1.09,3.3-2.13,5-3.12c1.35-0.78,2.71-1.52,4.1-2.23
					c1.03-0.53,2.08-1.03,3.13-1.52c0.78-0.36,4.09-1.6,0.65-0.31c6.84-2.57,13.69-4.41,20.89-5.65c3.65-0.63-2.39,0.06-0.05,0.01
					c0.93-0.02,1.89-0.2,2.82-0.28c1.69-0.15,3.39-0.25,5.09-0.31c3.95-0.15,7.91-0.08,11.85,0.19c1.68,0.12,3.37,0.42,5.04,0.47
					c2.34,0.07-3.72-0.62-0.09-0.02c0.74,0.12,1.48,0.23,2.21,0.35c3.66,0.62,7.3,1.42,10.88,2.39c3.72,1,7.39,2.18,10.97,3.6
					c2.46,0.97-3.06-1.52,0.84,0.39c0.81,0.4,1.63,0.77,2.44,1.18c2.36,1.19,4.67,2.49,6.92,3.89c1.64,1.02,3.21,2.13,4.81,3.22
					c0.64,0.43,2.89,2.2,0.49,0.31c0.65,0.51,1.29,1.04,1.93,1.57c3.09,2.57,6.01,5.34,8.77,8.26c1.32,1.4,2.6,2.83,3.85,4.3
					c0.52,0.61,3.51,4.38,2.33,2.82c-1.45-1.91,0.67,0.93,0.78,1.08c0.41,0.57,0.82,1.15,1.23,1.72c1.17,1.67,2.29,3.37,3.38,5.09
					c2.9,4.62,5.52,9.42,7.82,14.37c0.47,1.02,0.9,2.06,1.38,3.07c0.79,1.68-1.59-4.05-0.3-0.67c0.5,1.32,1.02,2.62,1.48,3.95
					c1.91,5.55,3.66,13.38,3.96,16.97c1.65,19.77-1.89,36.89-11.37,53.11c-1.21,2.07-2.49,4.1-3.85,6.07
					c-0.54,0.78-1.09,1.54-1.64,2.32c-2.6,3.66,1.03-1.19-0.66,0.85c-3.04,3.67-6.29,7.13-9.88,10.28
					c-0.75,0.66-4.45,3.45-2.05,1.74c-1.73,1.23-3.47,2.43-5.28,3.52c-1.77,1.06-3.59,2-5.44,2.92c-0.31,0.15-2.62,1.09-0.56,0.27
					c-1.41,0.56-2.85,1.06-4.3,1.53c-11.86,3.85-21.43,4.68-32.69,5.85c-13.24,1.37-26.61,2.58-39.6,5.57
					c-11.7,2.69-23.54,7.16-31.98,16.05c-6.37,6.7-9.95,14.75-13.79,23c-3.41,7.34-2.07,16.17,5.38,20.52
					c6.49,3.79,17.09,2,20.52-5.38c1.57-3.39,3.05-6.83,4.76-10.16c0.82-1.59,1.69-3.16,2.67-4.67c0.47-0.73,2.72-3.23,0.2-0.45
					c0.75-0.83,1.45-1.67,2.25-2.45c0.07-0.06,2.87-2.53,1.12-1.11c-1.8,1.46,1.47-0.95,1.5-0.97c0.95-0.59,1.92-1.13,2.91-1.64
					c0.53-0.27,3.29-1.4,1.12-0.56c5.77-2.23,11.95-3.53,18.02-4.63c10.37-1.88,21.48-2.66,33.29-4.03
					c11.34-1.32,22.9-2.75,33.74-6.5c42.29-14.62,67.47-61.22,66.04-104.59c-0.94-28.6-13.18-55.02-31.64-76.54
					c-23.6-27.51-60.38-41.09-96.29-38.19c-19.62,1.59-39.16,7.55-55.16,19.29c-19.43,14.25-32.43,33.57-40.81,56.01
					c-2.75,7.36,3.06,16.76,10.48,18.45C285.22,266.83,292.21,262.3,295.15,254.42L295.15,254.42z"/>
			</g>
		</g>
		<circle class="st8" cx="280.34" cy="489.19" r="20.19"/>
	</g>
</g>
</svg>
